<svg width="895" height="652" viewBox="0 0 895 652" fill="none" xmlns="http://www.w3.org/2000/svg">
<path d="M780.67 318.03V534.454H836.202V408.109L784.752 408.273" stroke="#6341A9" stroke-width="6" stroke-miterlimit="10"/>
<path d="M838.919 314.862V322.425H848.095V383.362V418.5H843.507H854.067V511.023H870.132V515.916H854.522V534.454H836.202" stroke="#6341A9" stroke-width="6" stroke-miterlimit="10"/>
<path d="M679.531 361.964L638.088 531.18L711.719 378.664L777.85 424.658L757.126 380.371" stroke="#6341A9" stroke-width="6" stroke-miterlimit="10"/>
<path d="M780.67 431.213L638.088 531.18L642.111 529.051L782.386 454.859V484.613L638.088 534.454" stroke="#6341A9" stroke-width="6" stroke-miterlimit="10"/>
<path d="M713.785 378.337C733.095 378.337 748.749 363.169 748.749 344.459C748.749 325.748 733.095 310.58 713.785 310.58C694.476 310.58 678.822 325.748 678.822 344.459C678.822 363.169 694.476 378.337 713.785 378.337Z" stroke="#6341A9" stroke-width="6" stroke-miterlimit="10"/>
<path d="M763.371 353.331C770.377 353.331 776.057 347.828 776.057 341.039C776.057 334.251 770.377 328.747 763.371 328.747C756.365 328.747 750.686 334.251 750.686 341.039C750.686 347.828 756.365 353.331 763.371 353.331Z" stroke="#6341A9" stroke-width="6" stroke-miterlimit="10"/>
<path d="M763.371 381.127C770.377 381.127 776.057 375.623 776.057 368.835C776.057 362.046 770.377 356.543 763.371 356.543C756.365 356.543 750.686 362.046 750.686 368.835C750.686 375.623 756.365 381.127 763.371 381.127Z" stroke="#6341A9" stroke-width="6" stroke-miterlimit="10"/>
<path d="M190.781 361.964L232.23 531.18L158.599 378.664L92.4614 424.658L113.186 380.371" stroke="#6341A9" stroke-width="6" stroke-miterlimit="10"/>
<path d="M89.6475 431.213L232.23 531.18L228.207 529.051L87.9253 454.859V484.613L232.23 534.454" stroke="#6341A9" stroke-width="6" stroke-miterlimit="10"/>
<path d="M156.533 378.337C175.842 378.337 191.496 363.169 191.496 344.459C191.496 325.748 175.842 310.58 156.533 310.58C137.223 310.58 121.569 325.748 121.569 344.459C121.569 363.169 137.223 378.337 156.533 378.337Z" stroke="#6341A9" stroke-width="6" stroke-miterlimit="10"/>
<path d="M106.941 353.331C113.947 353.331 119.626 347.828 119.626 341.039C119.626 334.251 113.947 328.747 106.941 328.747C99.9349 328.747 94.2554 334.251 94.2554 341.039C94.2554 347.828 99.9349 353.331 106.941 353.331Z" stroke="#6341A9" stroke-width="6" stroke-miterlimit="10"/>
<path d="M106.941 381.127C113.947 381.127 119.626 375.623 119.626 368.835C119.626 362.046 113.947 356.543 106.941 356.543C99.9349 356.543 94.2554 362.046 94.2554 368.835C94.2554 375.623 99.9349 381.127 106.941 381.127Z" stroke="#6341A9" stroke-width="6" stroke-miterlimit="10"/>
<path d="M92.4615 318.03V534.454H36.9233V408.109L88.3803 408.273" stroke="#6341A9" stroke-width="6" stroke-miterlimit="10"/>
<path d="M34.2134 314.862V322.425H25.0307V383.362V418.5H29.6253H19.0649V511.023H3V515.916H18.6099V534.454H36.9234" stroke="#6341A9" stroke-width="6" stroke-miterlimit="10"/>
<path d="M174.371 628.035H94.2616L92.4614 534.454H780.671L782.386 628.035H713.786" stroke="#6341A9" stroke-width="6" stroke-miterlimit="10"/>
<path d="M312.827 628.035H549.192" stroke="#6341A9" stroke-width="6" stroke-miterlimit="10"/>
<path d="M782.386 628.035H847.815V643.482H830.282L830.301 631.24" stroke="#6341A9" stroke-width="6" stroke-miterlimit="10"/>
<path d="M827.592 643.482H715.268" stroke="#6341A9" stroke-width="6" stroke-miterlimit="10"/>
<path d="M94.2617 628.035H3V643.482H23.0096L22.9836 631.24" stroke="#6341A9" stroke-width="6" stroke-miterlimit="10"/>
<path d="M26.0703 643.482H173.988" stroke="#6341A9" stroke-width="6" stroke-miterlimit="10"/>
<path d="M14.8604 537.622V625.044H24.0366V537.622" stroke="#6341A9" stroke-width="6" stroke-miterlimit="10"/>
<path d="M15.6855 609.969H22.8536" stroke="#6341A9" stroke-width="6" stroke-miterlimit="10"/>
<path d="M87.9256 537.622L24.0366 625.044" stroke="#6341A9" stroke-width="6" stroke-miterlimit="10"/>
<path d="M232.229 328.747V531.18H638.088L633.637 318.03H232.229V328.747Z" stroke="#6341A9" stroke-width="6" stroke-miterlimit="10"/>
<path d="M625.858 215.734H241.224V318.03H625.858V215.734Z" stroke="#6341A9" stroke-width="6" stroke-miterlimit="10"/>
<path d="M402.178 215.734V260.399" stroke="#6341A9" stroke-width="6" stroke-miterlimit="10"/>
<path d="M469.947 215.734V260.399" stroke="#6341A9" stroke-width="6" stroke-miterlimit="10"/>
<path d="M373.772 316.216L386.288 290.392H481.592L496.137 316.216" stroke="#6341A9" stroke-width="6" stroke-miterlimit="10"/>
<path d="M232.23 318.03L216.074 316.222L224.152 56.0961C222.67 35.725 232.21 24.0376 254.507 22.4004H617.793C637.243 29.0249 649.156 41.0083 647.992 62.2987V310.58L633.643 318.023" stroke="#6341A9" stroke-width="6" stroke-miterlimit="10"/>
<path d="M625.851 181.868H246.117V59.5787C245.104 45.5236 251.05 37.7026 264.346 36.481H607.902C619.918 37.5892 625.819 44.2327 625.851 56.1845V181.868Z" stroke="#6341A9" stroke-width="6" stroke-miterlimit="10"/>
<path d="M351.163 200.23C368.541 195.835 386.952 192.925 407.611 193.234V203.41" stroke="#6341A9" stroke-width="6" stroke-miterlimit="10"/>
<path d="M519.935 200.721C502.557 196.326 484.146 193.417 463.487 193.725V203.901" stroke="#6341A9" stroke-width="6" stroke-miterlimit="10"/>
<path d="M434.951 36.481L433.541 181.868" stroke="#6341A9" stroke-width="6" stroke-miterlimit="10"/>
<path d="M364.882 36.481L413.414 116.712" stroke="#6341A9" stroke-width="6" stroke-miterlimit="10"/>
<path d="M556.646 36.481L622.934 134.489" stroke="#6341A9" stroke-width="6" stroke-miterlimit="10"/>
<path d="M708.788 151.642L707.969 181.868L655.934 230.324V299.932" stroke="#6341A9" stroke-width="6" stroke-miterlimit="10"/>
<path d="M730.111 76.5933H688.727V151.642H730.111V76.5933Z" stroke="#6341A9" stroke-width="6" stroke-miterlimit="10"/>
<path d="M159.704 151.642L160.523 181.868L212.558 230.324V299.932" stroke="#6341A9" stroke-width="6" stroke-miterlimit="10"/>
<path d="M138.382 151.642H179.766V76.593H138.382V151.642Z" stroke="#6341A9" stroke-width="6" stroke-miterlimit="10"/>
<path d="M693.847 193.215C672.792 190.482 662.14 198.259 666.13 220.822" stroke="#6341A9" stroke-width="6" stroke-miterlimit="10"/>
<path d="M179.766 196.993C200.822 194.261 211.473 202.037 207.483 224.6" stroke="#6341A9" stroke-width="6" stroke-miterlimit="10"/>
<path d="M648.064 88.6272L679.576 53.8169" stroke="#6341A9" stroke-width="6" stroke-miterlimit="10"/>
<path d="M681.513 53.8169C693.278 53.8169 702.816 44.5752 702.816 33.175C702.816 21.7749 693.278 12.5332 681.513 12.5332C669.748 12.5332 660.21 21.7749 660.21 33.175C660.21 44.5752 669.748 53.8169 681.513 53.8169Z" stroke="#6341A9" stroke-width="6" stroke-miterlimit="10"/>
<path d="M232.229 341.039H634.117V356.549H232.229V378.337L634.956 381.127L635.274 396.422H232.229V419.337H635.755V439.135L232.229 446.572V465.186H636.711L638.088 482.831L232.229 488.108V503.743H637.516" stroke="#6341A9" stroke-width="6" stroke-miterlimit="10"/>
<path d="M94.2617 537.622L174.878 622.009H289.484" stroke="#6341A9" stroke-width="6" stroke-miterlimit="10"/>
<path d="M581.907 622.009H696.973L777.85 537.622L847.815 628.035V537.622" stroke="#6341A9" stroke-width="6" stroke-miterlimit="10"/>
<path d="M763.371 537.622L549.192 628.035" stroke="#6341A9" stroke-width="6" stroke-miterlimit="10"/>
<path d="M750.685 537.622L458.438 594.308" stroke="#6341A9" stroke-width="6" stroke-miterlimit="10"/>
<path d="M410.562 601.631L315.284 628.035L104.926 537.622" stroke="#6341A9" stroke-width="6" stroke-miterlimit="10"/>
<path d="M458.438 589.478H410.562V604.131H458.438V589.478Z" stroke="#6341A9" stroke-width="6" stroke-miterlimit="10"/>
<path d="M459.633 561.632H411.757V576.286H459.633V561.632Z" stroke="#6341A9" stroke-width="6" stroke-miterlimit="10"/>
<path d="M870.132 611.008H847.815" stroke="#6341A9" stroke-width="6" stroke-miterlimit="10"/>
<path d="M714.864 622.009H581.907V648.878H714.864V622.009Z" stroke="#6341A9" stroke-width="6" stroke-miterlimit="10"/>
<path d="M306.946 622.009H173.988V648.878H306.946V622.009Z" stroke="#6341A9" stroke-width="6" stroke-miterlimit="10"/>
<path d="M715.436 27H893.436" stroke="#6341A9" stroke-width="2"/>
<path d="M866.545 20.2312V21H858.112V20.2312H861.14V6.53322H858.112V5.78775C859.626 5.78775 860.814 5.69457 861.653 5.46161C862.491 5.22865 863.12 4.87921 863.493 4.3667L863.959 4.48318C863.866 4.71614 863.773 5.11217 863.726 5.67127C863.656 6.23037 863.633 6.83607 863.633 7.44176V20.2312H866.545ZM878.986 21H869.155V20.0915C872.184 16.8766 874.117 14.8033 874.956 13.8714C875.771 12.9396 876.354 12.1941 876.703 11.635C876.377 12.0078 875.958 12.3106 875.492 12.497C875.003 12.7066 874.467 12.7998 873.908 12.7998C872.557 12.7998 871.368 12.4271 870.39 11.6583C869.412 10.8896 868.922 9.91113 868.922 8.72304C868.922 7.53495 869.435 6.55652 870.507 5.81105C871.578 5.06558 872.883 4.66954 874.42 4.66954C875.841 4.66954 877.006 5.04228 877.915 5.78775C878.8 6.53322 879.266 7.51165 879.266 8.72304C879.266 9.25885 879.103 9.81795 878.8 10.3771C878.497 10.9362 877.985 11.635 877.286 12.4271C877.053 12.7299 876.727 13.1027 876.354 13.522C875.981 13.9646 875.282 14.7334 874.28 15.805C873.535 16.5971 872.976 17.2261 872.58 17.6687C872.184 18.1113 871.811 18.5306 871.462 18.9034H875.725C876.959 18.9034 877.728 18.7869 878.054 18.5306C878.381 18.2744 878.59 17.7619 878.683 16.9698L878.823 15.7118H879.592L878.986 21ZM874.094 5.41502C873.302 5.41502 872.696 5.71786 872.23 6.30026C871.764 6.90596 871.508 7.72131 871.508 8.74633C871.485 9.79465 871.718 10.61 872.184 11.1924C872.65 11.7981 873.302 12.0777 874.141 12.0777C874.909 12.0777 875.538 11.7981 876.004 11.1924C876.47 10.5867 876.703 9.77136 876.703 8.74633C876.703 7.72131 876.447 6.92925 875.981 6.32356C875.492 5.71786 874.863 5.41502 874.094 5.41502ZM892.723 16.2476C892.723 17.7153 892.233 18.9267 891.278 19.8585C890.3 20.7903 888.995 21.2563 887.318 21.2563C885.804 21.2563 884.616 20.8835 883.777 20.1381C882.915 19.3926 882.496 18.4142 882.496 17.1795C882.496 16.667 882.636 16.2476 882.938 15.9215C883.241 15.5953 883.637 15.409 884.15 15.409C884.616 15.409 884.988 15.572 885.268 15.8749C885.548 16.1777 885.687 16.5505 885.687 17.0164C885.687 17.5289 885.501 17.9016 885.175 18.1812C884.825 18.4607 884.336 18.6005 883.73 18.6005C883.963 19.2295 884.336 19.6954 884.895 20.0216C885.454 20.3477 886.13 20.4875 886.922 20.4875C887.9 20.4875 888.646 20.1148 889.205 19.3693C889.764 18.6238 890.02 17.5755 890.02 16.2476C889.997 14.9896 889.717 13.9879 889.182 13.2425C888.623 12.497 887.947 12.101 887.108 12.101C886.782 12.101 886.526 12.1475 886.316 12.2174C886.107 12.2873 885.874 12.4038 885.641 12.5902L885.315 12.2174L889.974 7.02244H886.852C886.083 7.02244 885.548 7.04573 885.268 7.06903C884.965 7.11562 884.732 7.16221 884.569 7.25539C884.313 7.37187 884.15 7.58154 884.057 7.86109C883.963 8.16394 883.917 8.65315 883.917 9.30544V9.93443H883.148V4.9258H892.21V5.71786L887.202 11.2856C889.042 11.4953 890.416 12.0078 891.348 12.8231C892.257 13.6385 892.723 14.78 892.723 16.2476Z" fill="#6341A9"/>
<path d="M831.851 295.231V296H825.072V295.231H827.355V291.644H820.692V291.224L829.032 279.646H829.871V290.875H831.851V291.644H829.871V295.231H831.851ZM821.95 290.875H827.355V283.234L821.95 290.875ZM844.949 290.735C844.949 292.273 844.437 293.577 843.435 294.649C842.41 295.72 841.082 296.256 839.405 296.256C837.984 296.256 836.889 295.93 836.097 295.255C835.305 294.602 834.932 293.694 834.932 292.575C834.932 292.063 835.072 291.644 835.375 291.318C835.677 290.991 836.073 290.828 836.586 290.828C837.052 290.828 837.425 290.991 837.704 291.294C837.984 291.597 838.123 291.97 838.123 292.412C838.123 292.878 837.937 293.274 837.588 293.554C837.215 293.857 836.749 294.02 836.19 294.02C836.376 294.486 836.726 294.835 837.262 295.091C837.797 295.371 838.426 295.487 839.172 295.487C840.22 295.487 840.989 295.115 841.501 294.346C841.991 293.601 842.247 292.412 842.247 290.782C842.247 289.291 841.991 288.149 841.478 287.404C840.966 286.658 840.174 286.286 839.148 286.286C838.45 286.286 837.821 286.472 837.308 286.845C836.796 287.217 836.423 287.753 836.237 288.429H835.608L836.539 279.926H841.781C842.34 279.926 842.783 279.833 843.062 279.6C843.342 279.367 843.505 278.947 843.598 278.342L843.645 277.946H844.39L843.854 282.022H837.122L836.609 286.798C836.935 286.332 837.378 285.983 837.914 285.75C838.426 285.517 839.055 285.4 839.754 285.4C841.338 285.4 842.62 285.913 843.551 286.938C844.483 287.963 844.949 289.244 844.949 290.735ZM854.302 286.239C855.536 286.239 856.631 286.752 857.61 287.73C858.588 288.708 859.077 289.896 859.077 291.248C859.077 292.599 858.541 293.764 857.493 294.765C856.445 295.767 855.233 296.256 853.859 296.256C852.228 296.256 850.9 295.604 849.899 294.276C848.897 292.948 848.408 291.131 848.408 288.802C848.408 287.777 848.524 286.728 848.78 285.703C849.013 284.678 849.363 283.77 849.829 282.931C850.388 281.883 851.063 281.067 851.879 280.508C852.694 279.949 853.603 279.67 854.581 279.67C855.653 279.67 856.538 279.949 857.237 280.508C857.936 281.067 858.285 281.789 858.285 282.651C858.285 283.164 858.145 283.56 857.866 283.84C857.586 284.142 857.214 284.282 856.748 284.282C856.235 284.282 855.839 284.142 855.56 283.863C855.257 283.583 855.117 283.211 855.117 282.745C855.117 282.279 855.257 281.906 855.536 281.626C855.816 281.347 856.235 281.207 856.771 281.184C856.515 280.928 856.189 280.718 855.816 280.578C855.42 280.438 854.977 280.368 854.465 280.368C853.3 280.368 852.438 280.928 851.879 282.022C851.32 283.117 851.063 284.795 851.063 287.078V288.429C851.366 287.707 851.786 287.171 852.345 286.798C852.881 286.425 853.533 286.239 854.302 286.239ZM853.859 287.054C852.997 287.054 852.345 287.427 851.902 288.173C851.436 288.918 851.227 289.943 851.227 291.248C851.227 292.622 851.436 293.67 851.902 294.416C852.345 295.161 852.997 295.511 853.859 295.511C854.651 295.511 855.303 295.138 855.769 294.346C856.235 293.577 856.468 292.552 856.468 291.248C856.468 289.943 856.235 288.918 855.793 288.173C855.327 287.427 854.698 287.054 853.859 287.054Z" fill="#6341A9"/>
<path d="M738.436 140.5H810.436V301.5" stroke="#6341A9" stroke-width="2"/>
</svg>
