<svg width="1746" height="1181" viewBox="0 0 1746 1181" fill="none" xmlns="http://www.w3.org/2000/svg">
<path d="M1406.73 599.054C1505.92 599.054 1586.33 518.595 1586.33 419.345C1586.33 320.094 1505.92 239.635 1406.73 239.635C1307.54 239.635 1227.13 320.094 1227.13 419.345C1227.13 518.595 1307.54 599.054 1406.73 599.054Z" stroke="#6341A9" stroke-width="5" stroke-miterlimit="10"/>
<path d="M1036.25 1034.83C1178.14 1034.83 1293.16 926.318 1293.16 792.461C1293.16 658.604 1178.14 550.092 1036.25 550.092C894.357 550.092 779.332 658.604 779.332 792.461C779.332 926.318 894.357 1034.83 1036.25 1034.83Z" stroke="#6341A9" stroke-width="5" stroke-miterlimit="10"/>
<path d="M1781.38 1034.83C1923.27 1034.83 2038.29 926.318 2038.29 792.461C2038.29 658.604 1923.27 550.092 1781.38 550.092C1639.49 550.092 1524.46 658.604 1524.46 792.461C1524.46 926.318 1639.49 1034.83 1781.38 1034.83Z" stroke="#6341A9" stroke-width="5" stroke-miterlimit="10"/>
<path d="M1231.82 378.378L942.243 716.74C880.602 800.476 934.997 900.261 1036.25 909.471H1754.56C1886.86 904.621 1950.54 786.66 1860.63 683.221L1568.15 340.488" stroke="#6341A9" stroke-width="5" stroke-miterlimit="10"/>
<path d="M1752.6 691.794L1686.81 751.25L1701.67 836.19L1769.57 876.53L1833.24 851.054L1862.94 784.162L1835.35 721.522L1752.6 691.794Z" stroke="#6341A9" stroke-width="5" stroke-miterlimit="10"/>
<path d="M1013.97 691.794L948.187 751.25L963.042 836.19L1030.95 876.53L1094.61 851.054L1124.32 784.162L1096.73 721.522L1013.97 691.794Z" stroke="#6341A9" stroke-width="5" stroke-miterlimit="10"/>
<path d="M1036.25 662.066C1112.51 681.839 1165.27 722.757 1156.29 819.2H1659.22C1638 739.698 1678.78 672.776 1774.87 654.522" stroke="#6341A9" stroke-width="5" stroke-miterlimit="10"/>
<path d="M1156.73 784.162H1653.83" stroke="#6341A9" stroke-width="5" stroke-miterlimit="10"/>
<path d="M1098.8 687.307V607.755H1710.27V679.576" stroke="#6341A9" stroke-width="5" stroke-miterlimit="10"/>
<path d="M1274.87 348.435L1258.7 408.567L1274.87 496.133L1347.63 550.729L1434.52 558.813L1509.28 514.329L1557.78 437.491L1537.58 360.653L1483.02 302.011L1406.73 277.75L1333.48 296.073L1274.87 348.435Z" stroke="#6341A9" stroke-width="5" stroke-miterlimit="10"/>
<path d="M1404.54 498.211C1448.07 498.211 1483.35 462.901 1483.35 419.345C1483.35 375.788 1448.07 340.479 1404.54 340.479C1361.01 340.479 1325.72 375.788 1325.72 419.345C1325.72 462.901 1361.01 498.211 1404.54 498.211Z" stroke="#6341A9" stroke-width="5" stroke-miterlimit="10"/>
<path d="M1404.54 501.758L1362.09 591.793C1391.37 600.298 1419.82 601.68 1447.28 594.4L1404.54 501.758Z" stroke="#6341A9" stroke-width="5" stroke-miterlimit="10"/>
<path d="M1404.54 464.387C1429.4 464.387 1449.55 444.221 1449.55 419.345C1449.55 394.468 1429.4 374.302 1404.54 374.302C1379.68 374.302 1359.52 394.468 1359.52 419.345C1359.52 444.221 1379.68 464.387 1404.54 464.387Z" stroke="#6341A9" stroke-width="5" stroke-miterlimit="10"/>
<path d="M1225.92 430.475L1013.97 691.794" stroke="#6341A9" stroke-width="5" stroke-miterlimit="10"/>
<path d="M1094.61 851.055H1729.91" stroke="#6341A9" stroke-width="5" stroke-miterlimit="10"/>
<path d="M1586.34 445.663L1835.35 721.522" stroke="#6341A9" stroke-width="5" stroke-miterlimit="10"/>
<path d="M1250.55 508.028H860.254V565.005H1301.53" stroke="#6341A9" stroke-width="5" stroke-miterlimit="10"/>
<path d="M1562.97 508.028H1957.37V565.005H1511.95" stroke="#6341A9" stroke-width="5" stroke-miterlimit="10"/>
<path d="M861.39 552.943H766.857V663.957H831.446C875.814 680.36 913.895 708.804 921.151 758.197" stroke="#6341A9" stroke-width="5" stroke-miterlimit="10"/>
<path d="M1346.35 250.07V144.308L1293.16 121.625V97.6786H1515.13V129.19L1469.79 143.054L1467.17 250.07" stroke="#6341A9" stroke-width="5" stroke-miterlimit="10"/>
<path d="M1346.35 188.606H1468.86" stroke="#6341A9" stroke-width="5" stroke-miterlimit="10"/>
<path d="M0.5 406H968.5V496" stroke="#6341A9" stroke-width="4"/>
</svg>
