<svg width="1123" height="782" viewBox="0 0 1123 782" fill="none" xmlns="http://www.w3.org/2000/svg">
<path d="M368.756 66.739C369.991 66.739 371.085 67.2515 372.064 68.2299C373.042 69.2084 373.531 70.3965 373.531 71.7476C373.531 73.0988 372.996 74.2636 371.947 75.2653C370.899 76.267 369.688 76.7563 368.313 76.7563C366.682 76.7563 365.355 76.104 364.353 74.7761C363.351 73.4482 362.862 71.6311 362.862 69.3016C362.862 68.2765 362.978 67.2282 363.235 66.2032C363.468 65.1782 363.817 64.2696 364.283 63.431C364.842 62.3827 365.518 61.5673 366.333 61.0082C367.148 60.4491 368.057 60.1695 369.035 60.1695C370.107 60.1695 370.992 60.4491 371.691 61.0082C372.39 61.5673 372.739 62.2895 372.739 63.1514C372.739 63.6639 372.6 64.06 372.32 64.3395C372.041 64.6424 371.668 64.7821 371.202 64.7821C370.689 64.7821 370.293 64.6424 370.014 64.3628C369.711 64.0833 369.571 63.7105 369.571 63.2446C369.571 62.7787 369.711 62.406 369.991 62.1264C370.27 61.8469 370.689 61.7071 371.225 61.6838C370.969 61.4275 370.643 61.2179 370.27 61.0781C369.874 60.9383 369.431 60.8684 368.919 60.8684C367.754 60.8684 366.892 61.4275 366.333 62.5224C365.774 63.6173 365.518 65.2947 365.518 67.5777V68.9288C365.821 68.2066 366.24 67.6708 366.799 67.2981C367.335 66.9254 367.987 66.739 368.756 66.739ZM368.313 67.5544C367.451 67.5544 366.799 67.9271 366.356 68.6726C365.89 69.418 365.681 70.4431 365.681 71.7476C365.681 73.1221 365.89 74.1704 366.356 74.9159C366.799 75.6613 367.451 76.0108 368.313 76.0108C369.105 76.0108 369.758 75.6381 370.223 74.846C370.689 74.0772 370.922 73.0522 370.922 71.7476C370.922 70.4431 370.689 69.418 370.247 68.6726C369.781 67.9271 369.152 67.5544 368.313 67.5544ZM381.457 75.5682C381.34 75.9875 381.177 76.2903 380.944 76.4767C380.711 76.6631 380.409 76.7563 380.059 76.7563C379.616 76.7563 379.29 76.6631 379.057 76.4301C378.824 76.1972 378.731 75.871 378.731 75.4517C378.731 75.2187 378.778 74.9392 378.894 74.6596C378.987 74.3801 379.267 73.8676 379.71 73.1454C380.129 72.4465 380.455 71.8408 380.688 71.3749C380.921 70.909 381.154 70.4431 381.364 69.9771C382.575 66.972 383.297 65.1316 383.53 64.456C383.763 63.8037 383.996 63.1514 384.182 62.5224H380.152C379.384 62.5224 378.848 62.5457 378.568 62.5923C378.265 62.6389 378.032 62.6855 377.869 62.7554C377.613 62.8952 377.45 63.1048 377.357 63.3844C377.264 63.6639 377.217 64.1532 377.217 64.8054V65.4344H376.448V60.4258H385.58V61.1014C385.394 61.6605 385.161 62.2895 384.928 62.9418C384.695 63.6173 384.369 64.5259 383.95 65.6907C383.717 66.3663 383.553 66.8322 383.46 67.0884C383.367 67.3447 383.297 67.5544 383.251 67.6941C382.831 68.9055 382.482 70.0237 382.226 71.0255C381.969 72.0505 381.783 73.1454 381.643 74.3335C381.597 74.7062 381.573 74.9858 381.55 75.1488C381.503 75.3119 381.48 75.4517 381.457 75.5682ZM399.378 71.9806C399.378 73.2852 398.842 74.4034 397.794 75.3352C396.722 76.2903 395.395 76.7563 393.81 76.7563C392.203 76.7563 390.875 76.2903 389.827 75.3352C388.755 74.4034 388.243 73.2852 388.243 71.9806C388.243 70.8624 388.592 69.9072 389.338 69.0686C390.083 68.2299 391.108 67.6708 392.413 67.3447C391.271 67.0884 390.409 66.6691 389.804 66.0634C389.198 65.4577 388.918 64.7356 388.918 63.8736C388.918 62.8486 389.384 61.9633 390.316 61.2412C391.248 60.5423 392.413 60.1695 393.787 60.1695C395.138 60.1695 396.303 60.5423 397.258 61.2412C398.213 61.9633 398.703 62.8486 398.703 63.8736C398.703 64.7356 398.4 65.4577 397.794 66.0634C397.188 66.6691 396.326 67.0884 395.208 67.3447C396.513 67.6708 397.514 68.2299 398.26 69.0686C399.005 69.9072 399.378 70.8624 399.378 71.9806ZM391.551 63.8736C391.551 64.852 391.737 65.6208 392.156 66.1799C392.552 66.739 393.112 66.9953 393.81 66.9953C394.509 66.9953 395.045 66.739 395.464 66.1799C395.86 65.6208 396.07 64.852 396.07 63.8736C396.07 62.9418 395.86 62.1963 395.464 61.6838C395.045 61.1713 394.486 60.915 393.787 60.915C393.088 60.915 392.529 61.1946 392.133 61.7071C391.737 62.2196 391.551 62.9418 391.551 63.8736ZM390.968 71.9806C390.945 73.2386 391.178 74.2403 391.69 74.9392C392.18 75.6613 392.879 76.0108 393.81 76.0108C394.719 76.0108 395.418 75.6613 395.93 74.9392C396.42 74.2403 396.653 73.2386 396.653 71.9806C396.629 70.6294 396.373 69.6044 395.884 68.8589C395.395 68.1135 394.696 67.7407 393.81 67.7407C392.902 67.7407 392.203 68.1135 391.714 68.8589C391.225 69.6044 390.968 70.6294 390.968 71.9806Z" fill="#6341A9"/>
<path d="M5.7541 524.568C5.63762 524.987 5.47455 525.29 5.24159 525.477C5.00863 525.663 4.70578 525.756 4.35634 525.756C3.91372 525.756 3.58758 525.663 3.35462 525.43C3.12166 525.197 3.02847 524.871 3.02847 524.452C3.02847 524.219 3.07506 523.939 3.19154 523.66C3.28473 523.38 3.56428 522.868 4.0069 522.145C4.42623 521.447 4.75237 520.841 4.98533 520.375C5.21829 519.909 5.45125 519.443 5.66091 518.977C6.8723 515.972 7.59448 514.132 7.82744 513.456C8.0604 512.804 8.29335 512.151 8.47972 511.522H4.44952C3.68076 511.522 3.14495 511.546 2.8654 511.592C2.56255 511.639 2.32959 511.686 2.16652 511.755C1.91027 511.895 1.7472 512.105 1.65401 512.384C1.56083 512.664 1.51424 513.153 1.51424 513.805V514.434H0.74547V509.426H9.87748V510.101C9.69111 510.66 9.45815 511.289 9.22519 511.942C8.99223 512.617 8.66609 513.526 8.24676 514.691C8.0138 515.366 7.85073 515.832 7.75755 516.088C7.66436 516.345 7.59448 516.554 7.54788 516.694C7.12856 517.906 6.77912 519.024 6.52286 520.025C6.26661 521.05 6.08024 522.145 5.94047 523.333C5.89387 523.706 5.87058 523.986 5.84728 524.149C5.80069 524.312 5.77739 524.452 5.7541 524.568ZM23.6754 520.981C23.6754 522.285 23.1396 523.403 22.0913 524.335C21.0197 525.29 19.6918 525.756 18.1077 525.756C16.5003 525.756 15.1724 525.29 14.1241 524.335C13.0525 523.403 12.54 522.285 12.54 520.981C12.54 519.862 12.8894 518.907 13.6349 518.069C14.3803 517.23 15.4054 516.671 16.7099 516.345C15.5684 516.088 14.7065 515.669 14.1008 515.063C13.4951 514.458 13.2155 513.736 13.2155 512.874C13.2155 511.849 13.6815 510.963 14.6133 510.241C15.5451 509.542 16.7099 509.17 18.0844 509.17C19.4355 509.17 20.6003 509.542 21.5555 510.241C22.5106 510.963 22.9998 511.849 22.9998 512.874C22.9998 513.736 22.697 514.458 22.0913 515.063C21.4856 515.669 20.6236 516.088 19.5054 516.345C20.81 516.671 21.8117 517.23 22.5572 518.069C23.3027 518.907 23.6754 519.862 23.6754 520.981ZM15.848 512.874C15.848 513.852 16.0343 514.621 16.4537 515.18C16.8497 515.739 17.4088 515.995 18.1077 515.995C18.8066 515.995 19.3424 515.739 19.7617 515.18C20.1577 514.621 20.3674 513.852 20.3674 512.874C20.3674 511.942 20.1577 511.196 19.7617 510.684C19.3424 510.171 18.7833 509.915 18.0844 509.915C17.3855 509.915 16.8264 510.195 16.4304 510.707C16.0343 511.22 15.848 511.942 15.848 512.874ZM15.2656 520.981C15.2423 522.239 15.4752 523.24 15.9877 523.939C16.477 524.661 17.1758 525.011 18.1077 525.011C19.0162 525.011 19.7151 524.661 20.2276 523.939C20.7168 523.24 20.9498 522.239 20.9498 520.981C20.9265 519.629 20.6702 518.604 20.181 517.859C19.6918 517.113 18.9929 516.741 18.1077 516.741C17.1991 516.741 16.5003 517.113 16.011 517.859C15.5218 518.604 15.2656 519.629 15.2656 520.981ZM37.0005 524.731V525.5H30.2214V524.731H32.5044V521.144H25.8418V520.724L34.1817 509.146H35.0204V520.375H37.0005V521.144H35.0204V524.731H37.0005ZM27.0997 520.375H32.5044V512.734L27.0997 520.375ZM48.3515 524.731V525.5H39.9183V524.731H42.9468V511.033H39.9183V510.288C41.4326 510.288 42.6207 510.195 43.4593 509.962C44.298 509.729 44.927 509.379 45.2997 508.867L45.7656 508.983C45.6724 509.216 45.5792 509.612 45.5326 510.171C45.4628 510.73 45.4395 511.336 45.4395 511.942V524.731H48.3515Z" fill="#6341A9"/>
<path d="M315 502.5L305.449 499.536L301.426 512.5H315V502.5ZM388.5 502.5V512.5H402.242L398.015 499.424L388.5 502.5ZM351 386.5L360.515 383.424L350.805 353.389L341.449 383.536L351 386.5ZM313.5 629.5V639.5H323.5V629.5H313.5ZM225.5 629.5H215.5V639.5H225.5V629.5ZM225.5 604.5V594.5H215.5V604.5H225.5ZM253.5 604.5V614.5H260.768L263.011 607.588L253.5 604.5ZM359 279.5V269.5H351.732L349.489 276.412L359 279.5ZM431.5 279.5L440.977 276.307L438.683 269.5H431.5V279.5ZM541 604.5L531.523 607.693L533.817 614.5H541V604.5ZM566.5 604.5H576.5V594.5H566.5V604.5ZM566.5 629.5V639.5H576.5V629.5H566.5ZM383.5 629.5H373.5V639.5H383.5V629.5ZM383.5 604.5V594.5H373.5V604.5H383.5ZM421 604.5V614.5H434.676L430.529 601.468L421 604.5ZM396.5 527.5L406.029 524.468L403.812 517.5H396.5V527.5ZM307.5 527.5V517.5H300.097L297.936 524.581L307.5 527.5ZM284 604.5L274.436 601.581L270.493 614.5H284V604.5ZM313.5 604.5H323.5V594.5H313.5V604.5ZM315 512.5H388.5V492.5H315V512.5ZM398.015 499.424L360.515 383.424L341.485 389.576L378.985 505.576L398.015 499.424ZM341.449 383.536L305.449 499.536L324.551 505.464L360.551 389.464L341.449 383.536ZM313.5 619.5H225.5V639.5H313.5V619.5ZM235.5 629.5V604.5H215.5V629.5H235.5ZM225.5 614.5H253.5V594.5H225.5V614.5ZM263.011 607.588L368.511 282.588L349.489 276.412L243.989 601.412L263.011 607.588ZM359 289.5H431.5V269.5H359V289.5ZM422.023 282.693L531.523 607.693L550.477 601.307L440.977 276.307L422.023 282.693ZM541 614.5H566.5V594.5H541V614.5ZM556.5 604.5V629.5H576.5V604.5H556.5ZM566.5 619.5H383.5V639.5H566.5V619.5ZM393.5 629.5V604.5H373.5V629.5H393.5ZM383.5 614.5H421V594.5H383.5V614.5ZM430.529 601.468L406.029 524.468L386.971 530.532L411.471 607.532L430.529 601.468ZM396.5 517.5H307.5V537.5H396.5V517.5ZM297.936 524.581L274.436 601.581L293.564 607.419L317.064 530.419L297.936 524.581ZM284 614.5H313.5V594.5H284V614.5ZM303.5 604.5V629.5H323.5V604.5H303.5Z" fill="#6341A9"/>
<path d="M284 612C284 641.063 260.876 664.5 232.5 664.5C204.124 664.5 181 641.063 181 612C181 582.937 204.124 559.5 232.5 559.5C260.876 559.5 284 582.937 284 612Z" stroke="#6341A9" stroke-width="8"/>
<path d="M249.5 599.5L260.5 568C281.951 589.398 288.966 603.706 279 635.5H220.5V599.5H249.5Z" fill="#6341A9" stroke="#6341A9" stroke-width="7"/>
<circle cx="432.5" cy="472" r="96" stroke="#6341A9" stroke-width="5"/>
<path d="M382.5 497.502L355.5 418.002C396.592 377.27 422.683 372.653 472.5 384.002C526.181 429.199 533.09 458.995 517.5 517.502C483.9 559.042 457.571 567.387 401.5 564.002L395 531.502H355.5L341 497.502H382.5Z" fill="#6341A9" stroke="#6341A9" stroke-width="7"/>
<path d="M870 624.5L863.541 632.134L863.541 632.134L870 624.5ZM845.5 576.5L855.4 575.086L835.922 573.627L845.5 576.5ZM813 623.5L807.335 615.26L807.249 615.319L807.164 615.38L813 623.5ZM697.5 623L703.876 615.296L703.812 615.243L703.747 615.191L697.5 623ZM706 518L700.405 509.712L700.383 509.727L700.36 509.742L706 518ZM796.5 493.5L795.807 483.524L795.78 483.526L795.752 483.528L796.5 493.5ZM832.5 491L833.193 500.976L842.5 500.33V491H832.5ZM819.5 408.5L827.119 402.023L827.028 401.916L826.933 401.81L819.5 408.5ZM752 398.5L748.838 389.013L723.885 397.331L748.061 407.691L752 398.5ZM775.5 416.5L783.821 410.953L783.821 410.953L775.5 416.5ZM699 477.5L706.071 470.429L705.863 470.221L705.644 470.026L699 477.5ZM724.5 387L729.241 395.805L729.277 395.785L729.313 395.766L724.5 387ZM912.5 387.5L918.222 379.299L918.157 379.253L918.091 379.209L912.5 387.5ZM947.5 597L939.18 602.547L939.18 602.547L947.5 597ZM968.5 589.5L959.137 585.989L959.137 585.989L968.5 589.5ZM973 554.5V544.5H963V554.5H973ZM998 554.5H1008V544.5H998V554.5ZM980 620.5L972.526 613.856L972.526 613.856L980 620.5ZM825 570L816.056 565.528L816.056 565.528L825 570ZM832.5 516H842.5V504.515L831.124 506.095L832.5 516ZM814.5 518.5L813.124 508.595L812.99 508.614L812.856 508.636L814.5 518.5ZM794 530.5L785.778 524.808L785.778 524.808L794 530.5ZM922.5 630.5C901.949 630.5 887.06 625.836 876.459 616.866L863.541 632.134C878.94 645.164 899.051 650.5 922.5 650.5V630.5ZM876.459 616.866C865.634 607.706 858.114 594.089 855.4 575.086L835.601 577.914C838.886 600.911 848.366 619.294 863.541 632.134L876.459 616.866ZM835.922 573.627C830.445 591.883 821.111 605.788 807.335 615.26L818.665 631.74C836.889 619.212 848.555 601.117 855.078 579.373L835.922 573.627ZM807.164 615.38C793.143 625.457 776.278 630.5 755.5 630.5V650.5C779.722 650.5 800.857 644.543 818.836 631.62L807.164 615.38ZM755.5 630.5C732.954 630.5 716.008 625.337 703.876 615.296L691.124 630.704C707.992 644.663 730.046 650.5 755.5 650.5V630.5ZM703.747 615.191C691.374 605.293 685.5 592.304 685.5 575H665.5C665.5 597.696 673.626 616.707 691.253 630.809L703.747 615.191ZM685.5 575C685.5 554.361 693.82 538.427 711.64 526.258L700.36 509.742C677.18 525.573 665.5 547.639 665.5 575H685.5ZM711.595 526.288C729.443 514.241 757.86 506.426 797.248 503.472L795.752 483.528C755.14 486.574 722.557 494.759 700.405 509.712L711.595 526.288ZM797.193 503.476L833.193 500.976L831.807 481.024L795.807 483.524L797.193 503.476ZM842.5 491V453.5H822.5V491H842.5ZM842.5 453.5C842.5 432.189 837.727 414.503 827.119 402.023L811.881 414.976C818.273 422.497 822.5 434.811 822.5 453.5H842.5ZM826.933 401.81C815.533 389.144 799.483 383.5 780 383.5V403.5C795.517 403.5 805.467 407.856 812.067 415.19L826.933 401.81ZM780 383.5C774.369 383.5 768.633 384.06 763.331 385.238L767.669 404.762C771.367 403.94 775.631 403.5 780 403.5V383.5ZM763.331 385.238C758.904 386.222 753.905 387.324 748.838 389.013L755.162 407.987C759.095 406.676 763.096 405.778 767.669 404.762L763.331 385.238ZM748.061 407.691C757.364 411.678 763.562 416.62 767.179 422.047L783.821 410.953C777.438 401.38 767.636 394.322 755.939 389.309L748.061 407.691ZM767.179 422.047C771.074 427.889 773.5 434.956 773.5 444H793.5C793.5 431.044 789.926 420.111 783.821 410.953L767.179 422.047ZM773.5 444C773.5 456.361 769.729 464.993 763.646 470.718L777.354 485.282C788.271 475.007 793.5 460.639 793.5 444H773.5ZM763.646 470.718C757.543 476.462 748.309 480 734.5 480V500C751.691 500 766.457 495.538 777.354 485.282L763.646 470.718ZM734.5 480C721.251 480 712.142 476.5 706.071 470.429L691.929 484.571C702.858 495.5 717.749 500 734.5 500V480ZM705.644 470.026C699.398 464.474 696 456.093 696 444H676C676 459.907 680.602 474.526 692.356 484.974L705.644 470.026ZM696 444C696 424.459 705.729 408.465 729.241 395.805L719.759 378.195C691.271 393.535 676 415.541 676 444H696ZM729.313 395.766C752.947 382.79 784.171 375.5 823.5 375.5V355.5C781.829 355.5 747.053 363.21 719.687 378.234L729.313 395.766ZM823.5 375.5C860.305 375.5 887.617 382.78 906.909 395.791L918.091 379.209C894.383 363.22 862.695 355.5 823.5 355.5V375.5ZM906.778 395.701C925.747 408.936 935 425.947 935 448.5H955C955 419.053 942.253 396.064 918.222 379.299L906.778 395.701ZM935 448.5V582.5H955V448.5H935ZM935 582.5C935 589.132 935.266 596.677 939.18 602.547L955.821 591.453C955.901 591.574 955.622 591.24 955.378 589.69C955.127 588.105 955 585.858 955 582.5H935ZM939.18 602.547C943.387 608.858 949.847 611.5 957 611.5V591.5C955.842 591.5 955.528 591.306 955.64 591.36C955.694 591.386 955.772 591.435 955.839 591.495C955.902 591.55 955.89 591.557 955.821 591.453L939.18 602.547ZM957 611.5C962.623 611.5 967.29 609.079 970.795 605.339C973.99 601.932 976.178 597.506 977.863 593.011L959.137 585.989C957.822 589.494 956.76 591.068 956.205 591.661C955.992 591.887 956.007 591.803 956.277 591.678C956.577 591.539 956.864 591.5 957 591.5V611.5ZM977.863 593.011C981.498 583.32 983 569.887 983 554.5H963C963 569.113 961.502 579.68 959.137 585.989L977.863 593.011ZM973 564.5H998V544.5H973V564.5ZM988 554.5C988 584.11 982.098 603.088 972.526 613.856L987.474 627.144C1001.9 610.912 1008 585.89 1008 554.5H988ZM972.526 613.856C963.198 624.35 947.565 630.5 922.5 630.5V650.5C950.435 650.5 972.802 643.65 987.474 627.144L972.526 613.856ZM777.5 558.5C777.5 568.423 778.946 578.262 784 585L800 573C799.054 571.738 797.5 567.577 797.5 558.5H777.5ZM784 585C789.357 592.143 797.225 595 806 595V575C801.775 575 800.643 573.857 800 573L784 585ZM806 595C818.875 595 828.101 586.159 833.944 574.472L816.056 565.528C811.899 573.841 808.125 575 806 575V595ZM833.944 574.472C839.89 562.582 842.5 547.372 842.5 530.5H822.5C822.5 545.628 820.11 557.418 816.056 565.528L833.944 574.472ZM842.5 530.5V516H822.5V530.5H842.5ZM831.124 506.095L813.124 508.595L815.876 528.405L833.876 525.905L831.124 506.095ZM812.856 508.636C801.76 510.485 792.118 515.651 785.778 524.808L802.222 536.192C804.882 532.349 809.24 529.515 816.144 528.364L812.856 508.636ZM785.778 524.808C779.567 533.779 777.5 545.723 777.5 558.5H797.5C797.5 547.277 799.433 540.221 802.222 536.192L785.778 524.808Z" fill="#6341A9"/>
<ellipse cx="734" cy="440" rx="55" ry="52.5" fill="#6341A9"/>
<path d="M1045.5 0L1036.84 15H1054.16L1045.5 0ZM1045.5 781.5L1054.16 766.5H1036.84L1045.5 781.5ZM1044 13.5V768H1047V13.5H1044Z" fill="#6341A9"/>
<path d="M341 85.5L356 94.1603V76.8397L341 85.5ZM1122.5 85.5L1107.5 76.8397V94.1603L1122.5 85.5ZM354.5 87L1109 87V84L354.5 84V87Z" fill="#6341A9"/>
<path d="M220.736 535.5L205.736 526.84V544.16L220.736 535.5ZM0 537H207.236V534H0L0 537Z" fill="#6341A9"/>
</svg>
