<svg width="281" height="133" viewBox="0 0 281 133" fill="none" xmlns="http://www.w3.org/2000/svg">
<path fill-rule="evenodd" clip-rule="evenodd" d="M18.7656 100.215C25.8582 100.078 26.2155 100.027 27.5014 98.9612C30.1366 96.7777 30.2015 96.296 30.2015 78.9293C30.2015 61.1457 30.1148 60.599 27.0202 58.9064C25.716 58.193 24.4672 58.0712 18.4327 58.0699L11.3713 58.0681V79.2133V100.358L18.7656 100.215ZM14.8401 57.1791H18.3088V47.8449V38.5106H20.7864H23.2641V47.8449V57.1791H26.9805H30.6971V35.8437V14.5082H26.9805H23.2641V22.9535V31.3988H20.7864H18.3088V22.9535V14.5082H14.8401H11.3713V35.8437V57.1791H14.8401ZM20.2378 63.8464C21.5396 63.8464 22.2646 64.0749 22.4678 64.5496C22.6333 64.9363 22.7686 71.497 22.7686 79.1289C22.7686 89.3285 22.611 93.1461 22.1739 93.5381C21.8469 93.8319 20.8434 94.0716 19.944 94.0716H18.3088V78.9591V63.8464H20.2378ZM41.1032 100.294H49.5272V97.1829V94.0716H44.8196H40.1121V87.8488V81.626H43.8286H47.5451V78.5146V75.4031H43.8286H40.1121V69.6248V63.8464H44.5719H49.0317V60.9572V58.0681H40.8554H32.6792V79.1813V100.294H41.1032ZM33.36 53.1245C35.3298 58.0086 44.8315 59.2575 49.329 55.2233C51.3384 53.421 51.9984 51.2616 52.0019 46.4794C52.0058 41.2971 51.2071 39.5049 46.3018 33.6932C41.3767 27.858 40.7429 26.8423 40.567 24.5003C40.3054 21.0169 40.5145 20.3244 41.9238 20.0074C43.9312 19.5554 44.5719 20.7191 44.5719 24.8164V28.2873H48.0941H51.6164L51.4384 23.2669C51.2462 17.8308 50.7492 16.5804 48.1794 15.0701C46.1299 13.8655 38.7014 13.9522 36.8342 15.2025C33.7644 17.2583 33.4224 18.1161 33.4224 23.7652C33.4224 28.6096 33.5142 29.1021 34.801 31.1841C35.5597 32.4109 37.5131 34.9112 39.1429 36.7402C40.7727 38.5697 42.6607 41.0558 43.339 42.2648C45.4783 46.0793 44.7528 51.4007 42.0943 51.4007C40.2702 51.4007 39.6166 49.7326 39.6166 45.0788V40.733H36.1479H32.6792L32.7168 46.178C32.7381 49.2619 33.0171 52.2742 33.36 53.1245ZM52.0356 97.2896C53.4156 99.6331 56.0494 100.739 60.2525 100.739C64.6414 100.739 67.2524 99.63 68.8856 97.0723C69.9793 95.359 70.0918 94.6863 70.0918 89.849C70.0918 83.5239 70.0526 83.4382 63.7212 75.9707C58.7426 70.0986 57.6648 67.5272 58.9299 64.5421C59.5245 63.1393 61.6226 62.9695 62.3937 64.2616C62.6757 64.7345 62.9065 66.6347 62.9065 68.4842V71.8472H66.4288H69.951L69.7528 66.8468C69.4371 58.8651 67.8966 57.4009 60.1206 57.6925C55.5083 57.8658 53.8794 58.6033 52.3497 61.2111C51.6084 62.4757 51.4851 63.5682 51.6272 67.6246C51.8304 73.4318 51.9067 73.5905 57.973 80.813C61.8724 85.4562 62.3659 86.2593 62.6726 88.4609C62.8609 89.8139 62.8164 91.6802 62.5735 92.6072C62.2014 94.0275 61.9031 94.3175 60.6851 94.4435C58.4339 94.6755 57.9512 93.6533 57.9512 88.6529V84.2929H54.4825H51.0138L51.0356 89.9602C51.054 94.7195 51.214 95.8932 52.0356 97.2896ZM54.3175 56.8826C54.4989 57.0458 58.2897 57.1791 62.7415 57.1791H70.835V53.8455V50.5118H66.1275H61.4199V44.289V38.0661H64.8886H68.3574V34.9547V31.8433H64.8886H61.4199V26.2872V20.7311H65.8797H70.3395V17.6196V14.5082H62.1633H53.987V35.5472C53.987 47.119 54.1356 56.72 54.3175 56.8826ZM76.0381 100.294H79.7546V79.1813V58.0681H76.0381H72.3216V79.1813V100.294H76.0381ZM80.9449 57.1791H84.1173L84.4394 54.4011C85.0751 48.9241 84.9473 49.1165 87.8516 49.2677L90.4085 49.4005L90.8401 53.2898L91.2718 57.1791H94.6805C97.1834 57.1791 98.089 57.0222 98.089 56.5888C98.089 56.2643 96.7528 46.8136 95.119 35.5868C93.4853 24.3603 92.1474 15.0172 92.1458 14.8243C92.1443 14.6314 90.192 14.5313 87.8069 14.602L83.4711 14.7305L82.8819 19.1754C82.5579 21.62 81.2759 31.1005 80.0326 40.2432C78.7898 49.3859 77.7724 56.9364 77.7724 57.0227C77.7724 57.1089 79.2001 57.1791 80.9449 57.1791ZM83.2823 97.5285C85.5404 101.62 90.7167 102.088 94.3058 98.5243C96.2028 96.6409 96.3068 96.6548 96.8315 98.8499C97.1497 100.181 97.3291 100.294 99.1192 100.294H101.062V87.4043V74.5141H96.1071H91.1518V77.8478V81.1815H92.8861H94.6205V86.4864C94.6205 89.4041 94.4104 92.2871 94.1533 92.8933C93.5913 94.2193 92.0561 94.7435 90.6751 94.0809C89.6915 93.6085 89.6652 93.2281 89.6652 79.4244C89.6652 71.6299 89.8005 64.9363 89.966 64.5496C90.4021 63.53 92.9764 63.6406 93.6121 64.7061C93.894 65.179 94.125 66.8792 94.125 68.4842V71.4027H97.6597H101.195L100.96 67.0298C100.548 59.3536 98.6002 57.4734 91.3119 57.7125C86.5508 57.8689 85.0786 58.5939 83.3472 61.6329C82.2521 63.5557 82.2323 63.8731 82.2328 79.6088C82.2333 95.0288 82.2724 95.6984 83.2823 97.5285ZM86.746 34.8373C87.09 31.4721 87.5201 28.8719 87.7019 29.059C87.8833 29.2457 88.303 31.9988 88.6345 35.1769C88.9655 38.3551 89.3481 41.3051 89.4843 41.7331C89.6915 42.3843 89.3986 42.511 87.6831 42.511C85.9696 42.511 85.6742 42.3839 85.8773 41.7331C86.0112 41.3051 86.4021 38.2021 86.746 34.8373ZM103.045 57.1791H106.513V47.6226V38.0661H108.148C110.873 38.0661 110.973 38.3826 110.973 47.0159C110.973 51.3514 111.19 55.4118 111.456 56.039C111.909 57.108 112.149 57.1791 115.296 57.1796L118.654 57.18L118.531 48.1787C118.385 37.6043 118.232 36.5358 116.65 35.1174C115.471 34.0595 115.468 34.0341 116.409 33.1901C117.982 31.7792 118.532 28.9323 118.312 23.3446C117.992 15.2083 117.039 14.5082 106.281 14.5082H99.576V35.8437V57.1791H103.045ZM107.009 100.294H110.478L110.517 88.8489L110.558 77.4033L113.83 88.8489L117.102 100.294H119.984H122.866V79.1813V58.0681H119.645H116.424L116.379 69.0692C116.327 81.5798 116.679 81.7913 112.682 66.8468L110.334 58.0681H106.937H103.54V79.1813V100.294H107.009ZM108.148 20.2866C110.703 20.2866 110.973 20.8382 110.973 26.0649C110.973 31.2917 110.703 31.8433 108.148 31.8433H106.513V26.0649V20.2866H108.148ZM122.365 20.7311H125.332L125.462 38.8439L125.591 56.9569L129.184 57.0875L132.776 57.2182V38.9747V20.7311H135.749H138.722V17.6196V14.5082H129.06H119.397V17.6196V20.7311H122.365ZM132.654 97.1512C134.005 99.5279 135.792 100.449 139.461 100.658C143.853 100.909 145.877 100.487 147.896 98.8978C150.037 97.2107 151.111 94.1884 151.111 89.849C151.111 84.8521 150.22 82.9733 144.754 76.4513C139.897 70.6556 139.218 69.3816 139.218 66.0675C139.218 64.1749 140.122 63.2664 141.792 63.4789C142.867 63.6157 142.95 63.8629 143.183 67.6246L143.43 71.625H146.899H150.368L150.322 66.9427C150.27 61.5854 149.733 60.1741 147.146 58.6041C145.591 57.6596 144.97 57.5663 141.112 57.6987C136.302 57.8632 134.803 58.517 133.024 61.2261C132.216 62.457 132.036 63.5135 132.053 66.9579C132.077 72.1348 133.129 74.4777 137.889 79.9578C142.877 85.6997 143.178 86.2678 143.18 89.9237C143.183 93.9494 142.934 94.5162 141.165 94.5162C139.155 94.5162 138.722 93.4585 138.722 88.5449V84.2929H135.254H131.786L131.786 89.9602C131.786 94.4768 131.962 95.9365 132.654 97.1512ZM148.758 57.0893L151.854 56.9569L152.35 53.1787L152.845 49.4005L155.402 49.2677C158.306 49.1165 158.179 48.9241 158.814 54.4011L159.137 57.1791H162.62H166.104L165.824 55.5123C165.669 54.5953 164.258 44.9948 162.688 34.1769L159.833 14.5082H155.578H151.323L148.474 35.5103C146.907 47.0617 145.633 56.672 145.642 56.8671C145.652 57.0618 147.054 57.1618 148.758 57.0893ZM154.208 97.1674C155.756 99.8743 157.776 100.739 162.551 100.739C166.892 100.739 168.908 99.8542 170.658 97.1821C171.539 95.836 171.698 94.7172 171.844 88.8489L172.012 82.0705H168.499H164.986V87.4336C164.986 93.5118 164.63 94.5162 162.479 94.5162C161.344 94.5162 160.884 94.2487 160.513 93.3757C160.24 92.7294 160.031 86.5878 160.031 79.1813C160.031 71.7748 160.24 65.6333 160.513 64.9866C160.884 64.1136 161.344 63.8464 162.479 63.8464C164.561 63.8464 164.986 64.8585 164.986 69.8177V74.0696H168.503H172.021L171.848 68.1802C171.704 63.2468 171.512 62.0383 170.667 60.735C169.207 58.4806 166.961 57.6249 162.5 57.6245C157.78 57.6236 155.751 58.4974 154.208 61.1955C153.113 63.1117 153.093 63.426 153.093 79.1813C153.093 94.9368 153.113 95.2507 154.208 97.1674ZM154.629 34.1751C154.963 30.9352 155.319 28.3576 155.419 28.4479C155.672 28.6749 157.048 39.2973 157.053 41.0664C157.057 42.4278 156.956 42.511 155.284 42.511C153.617 42.511 153.526 42.4372 153.765 41.2886C153.906 40.6166 154.295 37.4154 154.629 34.1751ZM167.647 56.996C168.019 57.1244 169.525 57.1684 170.992 57.0933L173.658 56.9569L173.905 45.6887L174.154 34.4204L177.084 44.7996C178.696 50.5083 180.196 55.6287 180.416 56.179C180.767 57.052 181.166 57.1791 183.556 57.1791H186.294V35.8437V14.5082H183.073H179.852L179.798 25.5093L179.743 36.5104L176.728 25.5093L173.712 14.5082H170.34H166.968V35.6352C166.968 53.1081 167.086 56.8031 167.647 56.996ZM177.87 100.294H181.339V90.9603V81.626H183.816H186.294V90.9603V100.294H190.01H193.726V79.1813V58.0681H190.01H186.294V66.5134V74.9586H183.816H181.339V66.5134V58.0681H177.87H174.401V79.1813V100.294H177.87ZM196.081 57.1005C204.081 56.9084 205.457 56.4559 207.055 53.4952C208.055 51.643 208.098 50.9163 208.096 35.5921C208.096 18.0112 208.043 17.6792 204.966 15.651C203.735 14.8398 202.72 14.7136 196.418 14.5865L189.267 14.4424V35.8534V57.2644L196.081 57.1005ZM197.319 96.7298C199.146 99.9369 200.455 100.517 205.867 100.517C211.066 100.517 212.431 99.9694 214.291 97.1365C215.225 95.7146 215.29 94.7025 215.423 79.6258C215.563 63.7145 215.557 63.6131 214.432 61.6502C212.582 58.4232 211.283 57.8459 205.867 57.8459C200.455 57.8459 199.146 58.4259 197.319 61.6329C196.225 63.5526 196.205 63.8891 196.205 79.1813C196.205 94.4737 196.225 94.81 197.319 96.7298ZM197.921 20.2866C199.112 20.2866 199.795 20.5502 200.151 21.1462C200.474 21.6858 200.664 27.1362 200.664 35.7828C200.664 50.9345 200.66 50.9562 197.656 50.9562H196.205V35.6214V20.2866H197.921ZM203.625 64.9866C203.991 64.1242 204.459 63.8464 205.547 63.8464C208.307 63.8464 208.345 64.0523 208.345 79.1813C208.345 94.244 208.265 94.7002 205.673 94.428C203.329 94.1806 203.157 93.1399 203.149 79.0991C203.145 71.7285 203.35 65.6346 203.625 64.9866ZM218.703 95.512C220.335 99.555 222.423 100.739 227.925 100.739C232.546 100.739 234.881 99.6532 236.467 96.7677C237.558 94.7798 237.581 94.4172 237.581 79.1813C237.581 63.7397 237.573 63.6082 236.414 61.4982C234.722 58.4152 232.487 57.4898 227.225 57.692C222.573 57.8703 220.707 58.7553 219.183 61.504C218.338 63.0313 218.246 64.5385 218.144 78.5146C218.057 90.4988 218.179 94.2123 218.703 95.512ZM226.035 64.3799C226.363 64.0864 227.26 63.8464 228.03 63.8464C229.076 63.8464 229.551 64.134 229.912 64.9866C230.187 65.6333 230.396 71.7748 230.396 79.1813C230.396 86.5878 230.187 92.7294 229.912 93.3757C229.551 94.2286 229.076 94.5162 228.03 94.5162C227.26 94.5162 226.363 94.2757 226.035 93.9827C225.184 93.2196 225.184 65.143 226.035 64.3799ZM248.235 100.294H256.164V96.961V93.627H251.704H247.244V75.8476V58.0681H243.775H240.306V79.1813V100.294H248.235Z" fill="white"/>
</svg>
