<svg width="2860" height="1032" viewBox="0 0 2860 1032" fill="none" xmlns="http://www.w3.org/2000/svg">
<path d="M1560.12 959.079C1560.12 961.525 1559.3 963.544 1557.71 965.097C1556.08 966.651 1553.91 967.427 1551.11 967.427C1548.59 967.427 1546.61 966.806 1545.21 965.563C1543.77 964.321 1543.07 962.69 1543.07 960.632C1543.07 959.778 1543.31 959.079 1543.81 958.536C1544.32 957.992 1544.98 957.682 1545.83 957.682C1546.61 957.682 1547.23 957.953 1547.69 958.458C1548.16 958.963 1548.39 959.584 1548.39 960.361C1548.39 961.215 1548.08 961.836 1547.54 962.302C1546.96 962.768 1546.14 963.001 1545.13 963.001C1545.52 964.049 1546.14 964.826 1547.07 965.369C1548 965.913 1549.13 966.146 1550.45 966.146C1552.08 966.146 1553.32 965.525 1554.26 964.282C1555.19 963.04 1555.61 961.292 1555.61 959.079C1555.58 956.983 1555.11 955.313 1554.22 954.071C1553.29 952.828 1552.16 952.168 1550.76 952.168C1550.22 952.168 1549.79 952.246 1549.44 952.362C1549.09 952.479 1548.7 952.673 1548.32 952.984L1547.77 952.362L1555.54 943.704H1550.33C1549.05 943.704 1548.16 943.743 1547.69 943.782C1547.19 943.859 1546.8 943.937 1546.53 944.092C1546.1 944.286 1545.83 944.636 1545.68 945.102C1545.52 945.607 1545.44 946.422 1545.44 947.509V948.557H1544.16V940.21H1559.26V941.53L1550.92 950.809C1553.98 951.159 1556.27 952.013 1557.83 953.372C1559.34 954.731 1560.12 956.633 1560.12 959.079ZM1582.7 965.719V967H1571.41V965.719H1575.21V959.739H1564.11V959.041L1578.01 939.744H1579.4V958.458H1582.7V959.739H1579.4V965.719H1582.7ZM1566.2 958.458H1575.21V945.723L1566.2 958.458ZM1605.47 965.719V967H1594.17V965.719H1597.97V959.739H1586.87V959.041L1600.77 939.744H1602.17V958.458H1605.47V959.739H1602.17V965.719H1605.47ZM1588.96 958.458H1597.97V945.723L1588.96 958.458Z" fill="#6341A9"/>
<path d="M989.052 315.231V316H982.273V315.231H984.556V311.644H977.893V311.224L986.233 299.646H987.072V310.875H989.052V311.644H987.072V315.231H989.052ZM979.151 310.875H984.556V303.234L979.151 310.875ZM1002.38 311.248C1002.38 312.715 1001.89 313.927 1000.94 314.858C999.961 315.79 998.656 316.256 996.979 316.256C995.464 316.256 994.276 315.884 993.438 315.138C992.576 314.393 992.156 313.414 992.156 312.179C992.156 311.667 992.296 311.248 992.599 310.921C992.902 310.595 993.298 310.409 993.81 310.409C994.276 310.409 994.649 310.572 994.929 310.875C995.208 311.178 995.348 311.55 995.348 312.016C995.348 312.529 995.162 312.902 994.835 313.181C994.486 313.461 993.997 313.601 993.391 313.601C993.624 314.23 993.997 314.695 994.556 315.022C995.115 315.348 995.791 315.487 996.583 315.487C997.561 315.487 998.307 315.115 998.866 314.369C999.425 313.624 999.681 312.575 999.681 311.248C999.658 309.99 999.378 308.988 998.842 308.242C998.283 307.497 997.608 307.101 996.769 307.101C996.443 307.101 996.187 307.148 995.977 307.217C995.767 307.287 995.534 307.404 995.301 307.59L994.975 307.217L999.634 302.022H996.513C995.744 302.022 995.208 302.046 994.929 302.069C994.626 302.116 994.393 302.162 994.23 302.255C993.973 302.372 993.81 302.582 993.717 302.861C993.624 303.164 993.577 303.653 993.577 304.305V304.934H992.809V299.926H1001.87V300.718L996.862 306.286C998.703 306.495 1000.08 307.008 1001.01 307.823C1001.92 308.638 1002.38 309.78 1002.38 311.248ZM1015.93 315.231V316H1009.16V315.231H1011.44V311.644H1004.78V311.224L1013.12 299.646H1013.95V310.875H1015.93V311.644H1013.95V315.231H1015.93ZM1006.03 310.875H1011.44V303.234L1006.03 310.875ZM1029.03 310.735C1029.03 312.273 1028.52 313.577 1027.52 314.649C1026.49 315.72 1025.17 316.256 1023.49 316.256C1022.07 316.256 1020.97 315.93 1020.18 315.255C1019.39 314.602 1019.02 313.694 1019.02 312.575C1019.02 312.063 1019.16 311.644 1019.46 311.318C1019.76 310.991 1020.16 310.828 1020.67 310.828C1021.14 310.828 1021.51 310.991 1021.79 311.294C1022.07 311.597 1022.21 311.97 1022.21 312.412C1022.21 312.878 1022.02 313.274 1021.67 313.554C1021.3 313.857 1020.83 314.02 1020.27 314.02C1020.46 314.486 1020.81 314.835 1021.34 315.091C1021.88 315.371 1022.51 315.487 1023.26 315.487C1024.3 315.487 1025.07 315.115 1025.58 314.346C1026.07 313.601 1026.33 312.412 1026.33 310.782C1026.33 309.291 1026.07 308.149 1025.56 307.404C1025.05 306.658 1024.26 306.286 1023.23 306.286C1022.53 306.286 1021.9 306.472 1021.39 306.845C1020.88 307.217 1020.51 307.753 1020.32 308.429H1019.69L1020.62 299.926H1025.86C1026.42 299.926 1026.87 299.833 1027.15 299.6C1027.43 299.367 1027.59 298.947 1027.68 298.342L1027.73 297.946H1028.47L1027.94 302.022H1021.21L1020.69 306.798C1021.02 306.332 1021.46 305.983 1022 305.75C1022.51 305.517 1023.14 305.4 1023.84 305.4C1025.42 305.4 1026.7 305.913 1027.63 306.938C1028.57 307.963 1029.03 309.244 1029.03 310.735Z" fill="#6341A9"/>
<path d="M1000.71 668.246C1001.12 668.362 1001.43 668.525 1001.61 668.758C1001.8 668.991 1001.89 669.294 1001.89 669.644C1001.89 670.086 1001.8 670.412 1001.57 670.645C1001.33 670.878 1001.01 670.972 1000.59 670.972C1000.36 670.972 1000.08 670.925 999.797 670.808C999.517 670.715 999.005 670.436 998.283 669.993C997.584 669.574 996.978 669.248 996.512 669.015C996.046 668.782 995.58 668.549 995.114 668.339C992.109 667.128 990.269 666.406 989.593 666.173C988.941 665.94 988.289 665.707 987.66 665.52L987.66 669.55C987.66 670.319 987.683 670.855 987.73 671.135C987.776 671.437 987.823 671.67 987.893 671.833C988.032 672.09 988.242 672.253 988.522 672.346C988.801 672.439 989.29 672.486 989.943 672.486L990.572 672.486L990.572 673.255L985.563 673.255L985.563 664.123L986.239 664.123C986.798 664.309 987.427 664.542 988.079 664.775C988.755 665.008 989.663 665.334 990.828 665.753C991.503 665.986 991.969 666.149 992.226 666.242C992.482 666.336 992.692 666.406 992.831 666.452C994.043 666.871 995.161 667.221 996.163 667.477C997.188 667.733 998.283 667.92 999.471 668.06C999.843 668.106 1000.12 668.129 1000.29 668.153C1000.45 668.199 1000.59 668.223 1000.71 668.246ZM1000.71 656.34C1001.12 656.457 1001.43 656.62 1001.61 656.853C1001.8 657.086 1001.89 657.389 1001.89 657.738C1001.89 658.181 1001.8 658.507 1001.57 658.74C1001.33 658.973 1001.01 659.066 1000.59 659.066C1000.36 659.066 1000.08 659.019 999.797 658.903C999.517 658.81 999.005 658.53 998.283 658.088C997.584 657.668 996.978 657.342 996.512 657.109C996.046 656.876 995.58 656.643 995.114 656.434C992.109 655.222 990.269 654.5 989.593 654.267C988.941 654.034 988.289 653.801 987.66 653.615L987.66 657.645C987.66 658.414 987.683 658.95 987.73 659.229C987.776 659.532 987.823 659.765 987.893 659.928C988.032 660.184 988.242 660.347 988.522 660.44C988.801 660.534 989.29 660.58 989.943 660.58L990.572 660.58L990.572 661.349L985.563 661.349L985.563 652.217L986.239 652.217C986.798 652.403 987.427 652.636 988.079 652.869C988.755 653.102 989.663 653.428 990.828 653.848C991.503 654.081 991.969 654.244 992.226 654.337C992.482 654.43 992.692 654.5 992.831 654.547C994.043 654.966 995.161 655.315 996.163 655.572C997.188 655.828 998.283 656.014 999.471 656.154C999.843 656.201 1000.12 656.224 1000.29 656.247C1000.45 656.294 1000.59 656.317 1000.71 656.34ZM991.876 643.661C991.876 642.426 992.389 641.331 993.367 640.353C994.346 639.374 995.534 638.885 996.885 638.885C998.236 638.885 999.401 639.421 1000.4 640.469C1001.4 641.517 1001.89 642.729 1001.89 644.103C1001.89 645.734 1001.24 647.062 999.913 648.064C998.585 649.065 996.768 649.555 994.439 649.555C993.414 649.555 992.365 649.438 991.34 649.182C990.315 648.949 989.407 648.599 988.568 648.133C987.52 647.574 986.705 646.899 986.145 646.083C985.586 645.268 985.307 644.36 985.307 643.381C985.307 642.31 985.586 641.424 986.145 640.725C986.705 640.027 987.427 639.677 988.289 639.677C988.801 639.677 989.197 639.817 989.477 640.096C989.78 640.376 989.919 640.749 989.919 641.215C989.919 641.727 989.78 642.123 989.5 642.403C989.22 642.706 988.848 642.845 988.382 642.845C987.916 642.845 987.543 642.706 987.264 642.426C986.984 642.146 986.844 641.727 986.821 641.191C986.565 641.448 986.355 641.774 986.215 642.146C986.076 642.542 986.006 642.985 986.006 643.498C986.006 644.662 986.565 645.524 987.66 646.083C988.755 646.643 990.432 646.899 992.715 646.899L994.066 646.899C993.344 646.596 992.808 646.177 992.435 645.618C992.063 645.082 991.876 644.429 991.876 643.661ZM992.692 644.103C992.692 644.965 993.064 645.618 993.81 646.06C994.555 646.526 995.58 646.736 996.885 646.736C998.259 646.736 999.308 646.526 1000.05 646.06C1000.8 645.618 1001.15 644.965 1001.15 644.103C1001.15 643.311 1000.78 642.659 999.983 642.193C999.214 641.727 998.189 641.494 996.885 641.494C995.58 641.494 994.555 641.727 993.81 642.17C993.064 642.636 992.692 643.265 992.692 644.103ZM1000.87 625.526L1001.64 625.526L1001.64 632.305L1000.87 632.305L1000.87 630.022L997.281 630.022L997.281 636.685L996.862 636.685L985.283 628.345L985.283 627.506L996.512 627.506L996.512 625.526L997.281 625.526L997.281 627.506L1000.87 627.506L1000.87 625.526ZM996.512 635.427L996.512 630.022L988.871 630.022L996.512 635.427Z" fill="#6341A9"/>
<path d="M503.052 136.231V137H496.273V136.231H498.556V132.644H491.893V132.224L500.233 120.646H501.072V131.875H503.052V132.644H501.072V136.231H503.052ZM493.151 131.875H498.556V124.234L493.151 131.875ZM515.917 137H506.087V136.091C509.115 132.877 511.049 130.803 511.887 129.871C512.703 128.94 513.285 128.194 513.634 127.635C513.308 128.008 512.889 128.311 512.423 128.497C511.934 128.707 511.398 128.8 510.839 128.8C509.488 128.8 508.3 128.427 507.321 127.658C506.343 126.89 505.854 125.911 505.854 124.723C505.854 123.535 506.366 122.557 507.438 121.811C508.509 121.066 509.814 120.67 511.351 120.67C512.772 120.67 513.937 121.042 514.846 121.788C515.731 122.533 516.197 123.512 516.197 124.723C516.197 125.259 516.034 125.818 515.731 126.377C515.428 126.936 514.916 127.635 514.217 128.427C513.984 128.73 513.658 129.103 513.285 129.522C512.912 129.965 512.213 130.733 511.212 131.805C510.466 132.597 509.907 133.226 509.511 133.669C509.115 134.111 508.742 134.531 508.393 134.903H512.656C513.891 134.903 514.659 134.787 514.986 134.531C515.312 134.274 515.521 133.762 515.615 132.97L515.754 131.712H516.523L515.917 137ZM511.025 121.415C510.233 121.415 509.627 121.718 509.162 122.3C508.696 122.906 508.439 123.721 508.439 124.746C508.416 125.795 508.649 126.61 509.115 127.192C509.581 127.798 510.233 128.078 511.072 128.078C511.841 128.078 512.47 127.798 512.936 127.192C513.401 126.587 513.634 125.771 513.634 124.746C513.634 123.721 513.378 122.929 512.912 122.324C512.423 121.718 511.794 121.415 511.025 121.415ZM530.562 132.481C530.562 133.785 530.027 134.903 528.978 135.835C527.907 136.79 526.579 137.256 524.995 137.256C523.387 137.256 522.059 136.79 521.011 135.835C519.939 134.903 519.427 133.785 519.427 132.481C519.427 131.362 519.776 130.407 520.522 129.569C521.267 128.73 522.292 128.171 523.597 127.845C522.455 127.588 521.593 127.169 520.988 126.563C520.382 125.958 520.102 125.236 520.102 124.374C520.102 123.349 520.568 122.463 521.5 121.741C522.432 121.042 523.597 120.67 524.971 120.67C526.322 120.67 527.487 121.042 528.442 121.741C529.398 122.463 529.887 123.349 529.887 124.374C529.887 125.236 529.584 125.958 528.978 126.563C528.373 127.169 527.511 127.588 526.392 127.845C527.697 128.171 528.699 128.73 529.444 129.569C530.19 130.407 530.562 131.362 530.562 132.481ZM522.735 124.374C522.735 125.352 522.921 126.121 523.341 126.68C523.737 127.239 524.296 127.495 524.995 127.495C525.694 127.495 526.229 127.239 526.649 126.68C527.045 126.121 527.254 125.352 527.254 124.374C527.254 123.442 527.045 122.696 526.649 122.184C526.229 121.671 525.67 121.415 524.971 121.415C524.272 121.415 523.713 121.695 523.317 122.207C522.921 122.72 522.735 123.442 522.735 124.374ZM522.153 132.481C522.129 133.739 522.362 134.74 522.875 135.439C523.364 136.161 524.063 136.511 524.995 136.511C525.903 136.511 526.602 136.161 527.115 135.439C527.604 134.74 527.837 133.739 527.837 132.481C527.813 131.129 527.557 130.104 527.068 129.359C526.579 128.613 525.88 128.241 524.995 128.241C524.086 128.241 523.387 128.613 522.898 129.359C522.409 130.104 522.153 131.129 522.153 132.481ZM543.561 132.248C543.561 133.715 543.072 134.927 542.117 135.858C541.139 136.79 539.834 137.256 538.157 137.256C536.642 137.256 535.454 136.884 534.616 136.138C533.754 135.393 533.334 134.414 533.334 133.179C533.334 132.667 533.474 132.248 533.777 131.921C534.08 131.595 534.476 131.409 534.988 131.409C535.454 131.409 535.827 131.572 536.107 131.875C536.386 132.178 536.526 132.55 536.526 133.016C536.526 133.529 536.34 133.902 536.013 134.181C535.664 134.461 535.175 134.601 534.569 134.601C534.802 135.23 535.175 135.695 535.734 136.022C536.293 136.348 536.969 136.487 537.761 136.487C538.739 136.487 539.485 136.115 540.044 135.369C540.603 134.624 540.859 133.575 540.859 132.248C540.836 130.99 540.556 129.988 540.02 129.242C539.461 128.497 538.786 128.101 537.947 128.101C537.621 128.101 537.365 128.148 537.155 128.217C536.945 128.287 536.712 128.404 536.479 128.59L536.153 128.217L540.812 123.022H537.691C536.922 123.022 536.386 123.046 536.107 123.069C535.804 123.116 535.571 123.162 535.408 123.255C535.151 123.372 534.988 123.582 534.895 123.861C534.802 124.164 534.755 124.653 534.755 125.305V125.934H533.987V120.926H543.049V121.718L538.04 127.286C539.881 127.495 541.255 128.008 542.187 128.823C543.095 129.638 543.561 130.78 543.561 132.248Z" fill="#6341A9"/>
<path d="M1565.05 105.231V106H1558.27V105.231H1560.56V101.644H1553.89V101.224L1562.23 89.6462H1563.07V100.875H1565.05V101.644H1563.07V105.231H1565.05ZM1555.15 100.875H1560.56V93.2338L1555.15 100.875ZM1574.05 96.239C1575.28 96.239 1576.38 96.7515 1577.36 97.7299C1578.34 98.7084 1578.83 99.8965 1578.83 101.248C1578.83 102.599 1578.29 103.764 1577.24 104.765C1576.19 105.767 1574.98 106.256 1573.61 106.256C1571.98 106.256 1570.65 105.604 1569.65 104.276C1568.65 102.948 1568.16 101.131 1568.16 98.8016C1568.16 97.7765 1568.27 96.7282 1568.53 95.7032C1568.76 94.6782 1569.11 93.7696 1569.58 92.931C1570.14 91.8827 1570.81 91.0673 1571.63 90.5082C1572.44 89.9491 1573.35 89.6695 1574.33 89.6695C1575.4 89.6695 1576.29 89.9491 1576.99 90.5082C1577.68 91.0673 1578.03 91.7895 1578.03 92.6514C1578.03 93.1639 1577.89 93.56 1577.61 93.8395C1577.34 94.1424 1576.96 94.2821 1576.5 94.2821C1575.98 94.2821 1575.59 94.1424 1575.31 93.8628C1575.01 93.5833 1574.87 93.2105 1574.87 92.7446C1574.87 92.2787 1575.01 91.906 1575.28 91.6264C1575.56 91.3469 1575.98 91.2071 1576.52 91.1838C1576.26 90.9275 1575.94 90.7179 1575.56 90.5781C1575.17 90.4383 1574.73 90.3684 1574.21 90.3684C1573.05 90.3684 1572.19 90.9275 1571.63 92.0224C1571.07 93.1173 1570.81 94.7947 1570.81 97.0777V98.4288C1571.11 97.7066 1571.53 97.1708 1572.09 96.7981C1572.63 96.4254 1573.28 96.239 1574.05 96.239ZM1573.61 97.0544C1572.75 97.0544 1572.09 97.4271 1571.65 98.1726C1571.18 98.918 1570.98 99.9431 1570.98 101.248C1570.98 102.622 1571.18 103.67 1571.65 104.416C1572.09 105.161 1572.75 105.511 1573.61 105.511C1574.4 105.511 1575.05 105.138 1575.52 104.346C1575.98 103.577 1576.22 102.552 1576.22 101.248C1576.22 99.9431 1575.98 98.918 1575.54 98.1726C1575.08 97.4271 1574.45 97.0544 1573.61 97.0544ZM1592.18 105.231V106H1585.41V105.231H1587.69V101.644H1581.03V101.224L1589.37 89.6462H1590.2V100.875H1592.18V101.644H1590.2V105.231H1592.18ZM1582.28 100.875H1587.69V93.2338L1582.28 100.875ZM1600.18 105.068C1600.06 105.487 1599.9 105.79 1599.67 105.977C1599.44 106.163 1599.13 106.256 1598.78 106.256C1598.34 106.256 1598.01 106.163 1597.78 105.93C1597.55 105.697 1597.46 105.371 1597.46 104.952C1597.46 104.719 1597.5 104.439 1597.62 104.16C1597.71 103.88 1597.99 103.368 1598.43 102.645C1598.85 101.947 1599.18 101.341 1599.41 100.875C1599.65 100.409 1599.88 99.9431 1600.09 99.4771C1601.3 96.472 1602.02 94.6316 1602.25 93.956C1602.49 93.3037 1602.72 92.6514 1602.91 92.0224H1598.88C1598.11 92.0224 1597.57 92.0457 1597.29 92.0923C1596.99 92.1389 1596.76 92.1855 1596.59 92.2554C1596.34 92.3952 1596.17 92.6048 1596.08 92.8844C1595.99 93.1639 1595.94 93.6532 1595.94 94.3054V94.9344H1595.17V89.9258H1604.3V90.6014C1604.12 91.1605 1603.89 91.7895 1603.65 92.4418C1603.42 93.1173 1603.09 94.0259 1602.67 95.1907C1602.44 95.8663 1602.28 96.3322 1602.18 96.5884C1602.09 96.8447 1602.02 97.0544 1601.97 97.1941C1601.56 98.4055 1601.21 99.5237 1600.95 100.525C1600.69 101.55 1600.51 102.645 1600.37 103.833C1600.32 104.206 1600.3 104.486 1600.27 104.649C1600.23 104.812 1600.2 104.952 1600.18 105.068ZM1612.86 96.239C1614.1 96.239 1615.19 96.7515 1616.17 97.7299C1617.15 98.7084 1617.64 99.8965 1617.64 101.248C1617.64 102.599 1617.1 103.764 1616.05 104.765C1615 105.767 1613.79 106.256 1612.42 106.256C1610.79 106.256 1609.46 105.604 1608.46 104.276C1607.46 102.948 1606.97 101.131 1606.97 98.8016C1606.97 97.7765 1607.08 96.7282 1607.34 95.7032C1607.57 94.6782 1607.92 93.7696 1608.39 92.931C1608.95 91.8827 1609.62 91.0673 1610.44 90.5082C1611.25 89.9491 1612.16 89.6695 1613.14 89.6695C1614.21 89.6695 1615.1 89.9491 1615.8 90.5082C1616.49 91.0673 1616.84 91.7895 1616.84 92.6514C1616.84 93.1639 1616.7 93.56 1616.43 93.8395C1616.15 94.1424 1615.77 94.2821 1615.31 94.2821C1614.79 94.2821 1614.4 94.1424 1614.12 93.8628C1613.82 93.5833 1613.68 93.2105 1613.68 92.7446C1613.68 92.2787 1613.82 91.906 1614.1 91.6264C1614.38 91.3469 1614.79 91.2071 1615.33 91.1838C1615.07 90.9275 1614.75 90.7179 1614.38 90.5781C1613.98 90.4383 1613.54 90.3684 1613.02 90.3684C1611.86 90.3684 1611 90.9275 1610.44 92.0224C1609.88 93.1173 1609.62 94.7947 1609.62 97.0777V98.4288C1609.93 97.7066 1610.34 97.1708 1610.9 96.7981C1611.44 96.4254 1612.09 96.239 1612.86 96.239ZM1612.42 97.0544C1611.56 97.0544 1610.9 97.4271 1610.46 98.1726C1610 98.918 1609.79 99.9431 1609.79 101.248C1609.79 102.622 1610 103.67 1610.46 104.416C1610.9 105.161 1611.56 105.511 1612.42 105.511C1613.21 105.511 1613.86 105.138 1614.33 104.346C1614.79 103.577 1615.03 102.552 1615.03 101.248C1615.03 99.9431 1614.79 98.918 1614.35 98.1726C1613.89 97.4271 1613.26 97.0544 1612.42 97.0544Z" fill="#6341A9"/>
<path d="M1094.04 27.7C1094.04 32.9 1092.69 37.2 1090.09 40.6C1087.49 44 1083.99 45.7 1079.64 45.7C1075.34 45.7 1071.94 44.1 1069.34 40.8C1066.74 37.55 1065.34 33.4 1065.19 28.35H1060.29V43.15H1063.74V45H1049.44V43.15H1053.24V12.35H1049.44V10.5H1063.74V12.35H1060.29V26.45H1065.19C1065.44 21.55 1066.89 17.55 1069.49 14.45C1072.09 11.35 1075.44 9.8 1079.64 9.8C1083.99 9.8 1087.49 11.5 1090.09 14.9C1092.69 18.3 1094.04 22.6 1094.04 27.7ZM1079.64 11.8C1077.14 11.8 1075.39 13.05 1074.34 15.55C1073.29 18.05 1072.79 22.1 1072.79 27.7C1072.79 33.3 1073.29 37.4 1074.39 39.9C1075.44 42.45 1077.19 43.7 1079.64 43.7C1082.04 43.7 1083.79 42.45 1084.84 39.95C1085.89 37.45 1086.44 33.35 1086.44 27.7C1086.44 22.1 1085.89 18.05 1084.84 15.55C1083.79 13.05 1082.04 11.8 1079.64 11.8ZM1116.32 43.35C1118.12 43.35 1119.42 42.55 1120.27 40.85C1121.07 39.15 1121.52 36.45 1121.52 32.65C1121.52 28.9 1121.12 26.15 1120.32 24.45C1119.52 22.75 1118.22 21.85 1116.47 21.85C1114.82 21.85 1113.52 22.75 1112.57 24.55C1111.62 26.35 1111.17 28.75 1111.17 31.8V35C1111.17 37.9 1111.57 40.05 1112.37 41.35C1113.17 42.7 1114.52 43.35 1116.32 43.35ZM1111.17 55.45H1116.87V57.5H1100.72V55.45H1104.32V21.85H1100.72V19.8C1103.12 19.8 1104.97 19.75 1106.22 19.65C1107.42 19.55 1108.37 19.4 1108.97 19.1L1110.02 19.55V27.05C1110.37 24.65 1111.32 22.7 1112.82 21.25C1114.32 19.85 1116.22 19.1 1118.52 19.1C1121.42 19.1 1123.82 20.35 1125.77 22.85C1127.67 25.35 1128.67 28.5 1128.67 32.3C1128.67 36.1 1127.57 39.3 1125.47 41.85C1123.37 44.45 1120.77 45.7 1117.72 45.7C1116.17 45.7 1114.87 45.45 1113.82 44.95C1112.77 44.45 1111.87 43.6 1111.17 42.5V55.45ZM1145.41 43.15H1148.81V45H1134.96V43.15H1138.56V21.7H1134.96V19.8H1148.81V21.7H1145.41V37.1L1155.06 24.25V21.7H1151.66V19.8H1165.51V21.7H1161.91V43.15H1165.51V45H1151.66V43.15H1155.06V27.5L1145.41 40.4V43.15ZM1182 43.15H1185.4V45H1171.55V43.15H1175.15V21.7H1171.55V19.8H1185.4V21.7H1182V37.1L1191.65 24.25V21.7H1188.25V19.8H1202.1V21.7H1198.5V43.15H1202.1V45H1188.25V43.15H1191.65V27.5L1182 40.4V43.15ZM1192.25 5.45C1193.25 5.45 1194 5.8 1194.6 6.4C1195.15 7 1195.45 7.8 1195.45 8.8C1195.45 10.9 1194.6 12.65 1193 14.15C1191.4 15.65 1189.3 16.4 1186.8 16.4C1184.25 16.4 1182.15 15.65 1180.55 14.15C1178.95 12.65 1178.15 10.9 1178.15 8.8C1178.15 7.8 1178.4 7 1179 6.4C1179.6 5.8 1180.35 5.45 1181.35 5.45C1182.25 5.45 1182.95 5.7 1183.5 6.2C1184 6.7 1184.3 7.35 1184.3 8.15C1184.3 9.25 1183.85 10.05 1183 10.55C1182.1 11.1 1181 11.15 1179.6 10.75C1180.2 11.5 1181.1 12.1 1182.4 12.5C1183.7 12.95 1185.15 13.15 1186.8 13.15C1188.45 13.15 1189.95 12.95 1191.25 12.55C1192.55 12.15 1193.5 11.55 1194.15 10.75C1192.65 11.2 1191.45 11.15 1190.6 10.65C1189.7 10.15 1189.3 9.35 1189.3 8.15C1189.3 7.35 1189.55 6.7 1190.1 6.2C1190.6 5.7 1191.35 5.45 1192.25 5.45ZM1238 9.8C1242.45 9.8 1246.05 11.55 1248.8 14.95C1251.55 18.4 1252.95 22.65 1252.95 27.75C1252.95 32.85 1251.55 37.15 1248.8 40.55C1246.05 44 1242.45 45.7 1238 45.7C1233.5 45.7 1229.9 44 1227.15 40.55C1224.4 37.15 1223.05 32.85 1223.05 27.75C1223.05 22.65 1224.4 18.4 1227.15 14.95C1229.9 11.55 1233.5 9.8 1238 9.8ZM1238 11.7C1235.4 11.7 1233.5 13 1232.35 15.55C1231.2 18.1 1230.65 22.15 1230.65 27.75C1230.65 33.35 1231.2 37.45 1232.35 40C1233.5 42.55 1235.4 43.8 1238 43.8C1240.6 43.8 1242.45 42.55 1243.6 40C1244.75 37.45 1245.35 33.35 1245.35 27.75C1245.35 22.15 1244.75 18.1 1243.6 15.55C1242.45 13 1240.6 11.7 1238 11.7ZM1279.78 37.15L1281.68 37.45C1281.13 40.15 1280.03 42.2 1278.38 43.6C1276.73 45 1274.63 45.7 1272.13 45.7C1268.43 45.7 1265.48 44.5 1263.28 42.1C1261.03 39.7 1259.93 36.5 1259.93 32.45C1259.93 28.45 1261.08 25.2 1263.43 22.8C1265.73 20.4 1268.78 19.15 1272.58 19.15C1275.28 19.15 1277.48 19.85 1279.08 21.15C1280.68 22.5 1281.48 24.35 1281.48 26.65C1281.48 27.8 1281.13 28.7 1280.48 29.4C1279.83 30.1 1278.98 30.4 1277.88 30.4C1276.68 30.4 1275.73 30.1 1275.08 29.45C1274.38 28.85 1274.08 27.95 1274.08 26.8C1274.08 25.8 1274.33 24.95 1274.93 24.3C1275.53 23.65 1276.38 23.2 1277.48 22.95C1277.08 22.35 1276.53 21.85 1275.83 21.5C1275.08 21.2 1274.18 21 1273.18 21C1271.03 21 1269.48 21.9 1268.48 23.7C1267.48 25.5 1267.03 28.45 1267.03 32.45C1267.03 36.05 1267.53 38.8 1268.58 40.65C1269.58 42.55 1271.08 43.45 1273.08 43.45C1274.78 43.45 1276.23 42.95 1277.33 41.9C1278.43 40.9 1279.23 39.3 1279.78 37.15ZM1306.58 43.15V45H1291.48V43.15H1295.63V21.7H1294.03C1292.23 21.8 1290.88 22.3 1290.03 23.3C1289.18 24.3 1288.78 25.85 1288.78 27.9V29H1286.93V19.8H1311.18V29H1309.28V27.9C1309.28 25.85 1308.83 24.3 1307.98 23.3C1307.13 22.3 1305.83 21.8 1304.08 21.7H1302.48V43.15H1306.58ZM1332.2 43.35C1334 43.35 1335.3 42.55 1336.15 40.85C1336.95 39.15 1337.4 36.45 1337.4 32.65C1337.4 28.9 1337 26.15 1336.2 24.45C1335.4 22.75 1334.1 21.85 1332.35 21.85C1330.7 21.85 1329.4 22.75 1328.45 24.55C1327.5 26.35 1327.05 28.75 1327.05 31.8V35C1327.05 37.9 1327.45 40.05 1328.25 41.35C1329.05 42.7 1330.4 43.35 1332.2 43.35ZM1327.05 55.45H1332.75V57.5H1316.6V55.45H1320.2V21.85H1316.6V19.8C1319 19.8 1320.85 19.75 1322.1 19.65C1323.3 19.55 1324.25 19.4 1324.85 19.1L1325.9 19.55V27.05C1326.25 24.65 1327.2 22.7 1328.7 21.25C1330.2 19.85 1332.1 19.1 1334.4 19.1C1337.3 19.1 1339.7 20.35 1341.65 22.85C1343.55 25.35 1344.55 28.5 1344.55 32.3C1344.55 36.1 1343.45 39.3 1341.35 41.85C1339.25 44.45 1336.65 45.7 1333.6 45.7C1332.05 45.7 1330.75 45.45 1329.7 44.95C1328.65 44.45 1327.75 43.6 1327.05 42.5V55.45ZM1363.99 19.15C1367.54 19.15 1370.54 20.45 1372.99 22.95C1375.44 25.45 1376.69 28.65 1376.69 32.5C1376.69 36.35 1375.44 39.5 1372.99 42C1370.54 44.5 1367.54 45.7 1363.99 45.7C1360.34 45.7 1357.34 44.5 1354.94 42C1352.54 39.5 1351.34 36.3 1351.34 32.35C1351.34 28.5 1352.54 25.35 1354.94 22.85C1357.34 20.4 1360.34 19.15 1363.99 19.15ZM1363.99 21.1C1362.04 21.1 1360.64 22 1359.74 23.75C1358.84 25.55 1358.44 28.4 1358.44 32.35C1358.44 36.4 1358.84 39.3 1359.74 41.05C1360.64 42.85 1362.04 43.7 1363.99 43.7C1365.84 43.7 1367.24 42.8 1368.19 40.9C1369.09 39.05 1369.59 36.25 1369.59 32.5C1369.59 28.7 1369.09 25.85 1368.19 23.95C1367.24 22.05 1365.84 21.1 1363.99 21.1ZM1389.04 43.15H1393.09V45H1383.04V43.15H1386.64V21.7H1383.04V19.8H1394.59L1401.14 33.9L1407.84 19.8H1419.04V21.7H1415.39V43.15H1419.04V45H1404.79V43.15H1408.59V23.25L1399.59 42.4H1397.59L1389.04 23.25V43.15ZM1438.14 45.7C1434.34 45.7 1431.29 44.5 1428.94 42C1426.54 39.55 1425.39 36.3 1425.39 32.25C1425.39 28.4 1426.49 25.25 1428.79 22.8C1431.09 20.4 1433.99 19.15 1437.49 19.15C1440.89 19.15 1443.59 20.25 1445.59 22.4C1447.59 24.55 1448.64 27.35 1448.64 30.75V31.35C1448.64 31.6 1448.59 31.9 1448.59 32.2H1432.49V32.75C1432.54 36.55 1433.09 39.3 1434.14 40.95C1435.19 42.65 1436.84 43.45 1439.14 43.45C1440.99 43.45 1442.54 42.95 1443.74 41.9C1444.94 40.9 1445.79 39.3 1446.39 37.15L1448.24 37.45C1447.69 40.05 1446.54 42.05 1444.74 43.5C1442.94 45 1440.74 45.7 1438.14 45.7ZM1437.39 21.05C1435.79 21.05 1434.59 21.8 1433.79 23.3C1432.99 24.8 1432.59 27.15 1432.49 30.35H1441.84C1441.84 26.95 1441.49 24.55 1440.79 23.15C1440.09 21.75 1438.94 21.05 1437.39 21.05ZM1465.25 43.15H1468.5V45H1454.8V43.15H1458.4V21.7H1454.8V19.8H1468.5V21.7H1465.25V31H1474.7V21.7H1471.45V19.8H1485.2V21.7H1481.55V43.15H1485.2V45H1471.45V43.15H1474.7V32.9H1465.25V43.15ZM1521.94 43.15V52.6H1520.09V51.45C1520.09 49.35 1519.54 47.75 1518.44 46.65C1517.34 45.55 1515.74 45 1513.64 45H1491.24V43.15H1494.84V21.7H1491.24V19.8H1504.84V21.7H1501.69V43.15H1510.79V21.7H1507.64V19.8H1521.24V21.7H1517.64V43.15H1521.94ZM1550.84 45.7C1549.04 45.7 1547.64 45.25 1546.59 44.35C1545.54 43.45 1544.74 41.85 1544.19 39.55C1543.69 37.75 1543.39 36.65 1543.24 36.25C1543.04 35.85 1542.89 35.45 1542.74 35.15C1542.29 34.45 1541.74 33.9 1541.14 33.55C1540.49 33.25 1539.74 33.05 1538.84 33.05H1537.74V43.15H1541.49V45H1527.29V43.15H1530.89V21.7H1527.29V19.8H1540.84V21.7H1537.74V31.15H1539.44C1540.24 31.15 1540.89 30.85 1541.44 30.25C1541.94 29.65 1542.54 28.35 1543.14 26.3C1543.54 24.85 1543.94 23.8 1544.24 23.1C1544.54 22.4 1544.89 21.8 1545.29 21.3C1545.84 20.6 1546.54 20.05 1547.34 19.7C1548.14 19.35 1549.04 19.15 1550.09 19.15C1551.49 19.15 1552.64 19.55 1553.49 20.35C1554.34 21.15 1554.79 22.2 1554.79 23.55C1554.79 24.75 1554.49 25.7 1553.89 26.3C1553.29 26.95 1552.49 27.25 1551.39 27.25C1550.29 27.25 1549.44 27 1548.79 26.4C1548.14 25.85 1547.84 25.1 1547.84 24.15C1547.84 23.4 1548.09 22.75 1548.59 22.2C1549.09 21.65 1549.79 21.3 1550.69 21.15C1550.49 21.1 1550.29 21.05 1550.14 21C1549.94 21 1549.79 20.95 1549.59 20.95C1548.69 20.95 1547.94 21.3 1547.34 21.9C1546.74 22.55 1546.09 23.95 1545.44 26.05C1544.84 28 1544.29 29.35 1543.79 30.15C1543.29 30.95 1542.69 31.5 1541.99 31.85C1543.49 32.35 1544.69 32.8 1545.59 33.2C1546.49 33.6 1547.29 33.95 1547.89 34.3C1548.79 34.8 1549.44 35.4 1549.89 36C1550.29 36.6 1550.74 37.75 1551.24 39.45C1551.64 41.2 1551.99 42.2 1552.24 42.5C1552.44 42.8 1552.74 42.95 1553.14 42.95C1553.69 42.95 1554.09 42.5 1554.34 41.6C1554.59 40.7 1554.74 39.3 1554.74 37.4H1556.49C1556.49 40.5 1556.04 42.65 1555.14 43.85C1554.24 45.1 1552.84 45.7 1550.84 45.7ZM1572.28 43.15H1575.68V45H1561.83V43.15H1565.43V21.7H1561.83V19.8H1575.68V21.7H1572.28V37.1L1581.93 24.25V21.7H1578.53V19.8H1592.38V21.7H1588.78V43.15H1592.38V45H1578.53V43.15H1581.93V27.5L1572.28 40.4V43.15ZM1608.86 43.15H1612.26V45H1598.41V43.15H1602.01V21.7H1598.41V19.8H1612.26V21.7H1608.86V37.1L1618.51 24.25V21.7H1615.11V19.8H1628.96V21.7H1625.36V43.15H1628.96V45H1615.11V43.15H1618.51V27.5L1608.86 40.4V43.15ZM1619.11 5.45C1620.11 5.45 1620.86 5.8 1621.46 6.4C1622.01 7 1622.31 7.8 1622.31 8.8C1622.31 10.9 1621.46 12.65 1619.86 14.15C1618.26 15.65 1616.16 16.4 1613.66 16.4C1611.11 16.4 1609.01 15.65 1607.41 14.15C1605.81 12.65 1605.01 10.9 1605.01 8.8C1605.01 7.8 1605.26 7 1605.86 6.4C1606.46 5.8 1607.21 5.45 1608.21 5.45C1609.11 5.45 1609.81 5.7 1610.36 6.2C1610.86 6.7 1611.16 7.35 1611.16 8.15C1611.16 9.25 1610.71 10.05 1609.86 10.55C1608.96 11.1 1607.86 11.15 1606.46 10.75C1607.06 11.5 1607.96 12.1 1609.26 12.5C1610.56 12.95 1612.01 13.15 1613.66 13.15C1615.31 13.15 1616.81 12.95 1618.11 12.55C1619.41 12.15 1620.36 11.55 1621.01 10.75C1619.51 11.2 1618.31 11.15 1617.46 10.65C1616.56 10.15 1616.16 9.35 1616.16 8.15C1616.16 7.35 1616.41 6.7 1616.96 6.2C1617.46 5.7 1618.21 5.45 1619.11 5.45Z" fill="#6341A9"/>
<path d="M1571.01 734.462L2828.52 693.226C2853.46 686.031 2853.46 647.942 2828.52 647.942L1571.01 691.202V734.462Z" stroke="#6341A9" stroke-width="4" stroke-miterlimit="10"/>
<path d="M1262.7 691.184L51.1828 658.449C13.3285 658.449 5.66952 694.606 33.2383 700.402L1223.6 734.444L1262.7 691.184Z" stroke="#6341A9" stroke-width="4" stroke-miterlimit="10"/>
<path d="M1435.33 590.182C1454.57 590.182 1470.16 574.562 1470.16 555.294C1470.16 536.027 1454.57 520.407 1435.33 520.407C1416.1 520.407 1400.51 536.027 1400.51 555.294C1400.51 574.562 1416.1 590.182 1435.33 590.182Z" stroke="#6341A9" stroke-width="4" stroke-miterlimit="10"/>
<path d="M1435.33 569.96C1443.42 569.96 1449.97 563.394 1449.97 555.294C1449.97 547.195 1443.42 540.629 1435.33 540.629C1427.25 540.629 1420.7 547.195 1420.7 555.294C1420.7 563.394 1427.25 569.96 1435.33 569.96Z" stroke="#6341A9" stroke-width="4" stroke-miterlimit="10"/>
<path d="M1449.99 520.407C1512.07 442.608 1581.64 367.717 1658.68 295.752C1686.67 277.223 1703.64 294.924 1685.71 321.329C1633.29 395.65 1557.95 468.59 1466.92 540.61" stroke="#6341A9" stroke-width="4" stroke-miterlimit="10"/>
<path d="M1420.69 585.14C1358.61 662.939 1289.04 737.83 1212.01 809.795C1184.02 828.324 1167.05 810.623 1184.97 784.218C1237.39 709.897 1312.73 636.957 1403.76 564.937" stroke="#6341A9" stroke-width="4" stroke-miterlimit="10"/>
<path d="M1531.93 575.995H1557.22C1566.68 576.106 1571.16 580.945 1570.99 590.182V740.865C1530.47 746.551 1493.87 755.365 1462.77 768.595V800.061C1463.03 822.933 1412.08 824.81 1410.08 800.061V738.731C1409.88 728.077 1416.12 717.055 1426.57 715.27C1460.15 714.957 1493.85 716.153 1527.7 719.005L1527.17 575.995H1531.91H1531.93Z" stroke="#6341A9" stroke-width="4" stroke-miterlimit="10"/>
<path d="M1527.21 575.995V531.741C1517.07 519.155 1509.66 511.666 1505.13 509.532" stroke="#6341A9" stroke-width="4" stroke-linejoin="round"/>
<path d="M1472.54 492.676C1423.52 471.608 1379.44 484.911 1339.6 527.748V615.795" stroke="#6341A9" stroke-width="4" stroke-linejoin="round"/>
<path d="M1339.6 680.419V696.464" stroke="#6341A9" stroke-width="4" stroke-linejoin="round"/>
<path d="M1527.65 748.52L1564.88 768.945L1661.5 935.158H1646.94L1551.63 780.004L1507.68 753.359" stroke="#6341A9" stroke-width="4" stroke-linejoin="round"/>
<path d="M1463.09 774.336L1643.78 933.226L1634.16 935.158L1463.09 790.253V774.336Z" stroke="#6341A9" stroke-width="4" stroke-linejoin="round"/>
<path d="M1410.1 795.46H1382.05L1225.71 933.576L1234.95 935.158L1410.1 801.385V795.46Z" stroke="#6341A9" stroke-width="4" stroke-linejoin="round"/>
<path d="M1527.65 696.943L1332.85 700.347V751.63H1410.1V795.46H1382.05L1378.84 798.294L1320.71 813.235L1217.96 935.158H1205.4L1342.87 751.63" stroke="#6341A9" stroke-width="4" stroke-linejoin="round"/>
<path d="M1234.95 935.158H1188.5V971.831H1234.95V935.158Z" stroke="#6341A9" stroke-width="4" stroke-linejoin="round"/>
<path d="M1188.5 891.714V1017.72C1188.5 1033.69 1148.85 1033.69 1148.85 1017.72V891.714C1148.85 872.43 1188.5 872.688 1188.5 891.714Z" stroke="#6341A9" stroke-width="4" stroke-linejoin="round"/>
<path d="M1724.1 891.714V1017.72C1724.1 1033.69 1684.44 1033.69 1684.44 1017.72V891.714C1684.44 872.43 1724.1 872.688 1724.1 891.714Z" stroke="#6341A9" stroke-width="4" stroke-linejoin="round"/>
<path d="M1747.9 953.522L1634.16 954.295" stroke="#6341A9" stroke-width="4" stroke-linejoin="round"/>
<path d="M1118.6 954.295H1234.95" stroke="#6341A9" stroke-width="4" stroke-linejoin="round"/>
<path d="M1541.64 575.995V512.016C1534.26 501.785 1527.87 495.234 1522.96 494.406" stroke="#6341A9" stroke-width="4" stroke-linejoin="round"/>
<path d="M1488.93 473.153C1448.06 456.206 1409.91 452.158 1372.78 473.153C1350.9 484.948 1335.34 497.774 1327.1 509.55L1329.39 627.259" stroke="#6341A9" stroke-width="4" stroke-linejoin="round"/>
<path d="M1336.87 498.325L1420.69 272.199H1445.32L1511.81 446.712" stroke="#6341A9" stroke-width="4" stroke-linejoin="round"/>
<path d="M1360.67 430.593C1409.99 383.156 1458.49 381.426 1506.06 430.593" stroke="#6341A9" stroke-width="4" stroke-linejoin="round"/>
<path d="M1327.1 535.182H1030.6L1058.24 553.454L1327.1 555.294" stroke="#6341A9" stroke-width="4" stroke-linejoin="round"/>
<path d="M639.715 277.149L1262.7 688.441L1232.21 690.374L618.519 277.149H639.715Z" stroke="#6341A9" stroke-width="4" stroke-linejoin="round"/>
<path d="M1541.64 534.262L1827.61 535.182L1799.97 553.454L1541.64 554.356" stroke="#6341A9" stroke-width="4" stroke-linejoin="round"/>
<path d="M2201.99 272.199L1606.04 689.987L1636.52 689.435L2223.2 272.199H2201.99Z" stroke="#6341A9" stroke-width="4" stroke-linejoin="round"/>
<path d="M1027.07 553.601H998.843C992.213 547.455 992.213 541.328 998.843 535.182" stroke="#6341A9" stroke-width="4" stroke-linejoin="round"/>
<path d="M1827.61 553.527H1855.84C1862.47 547.382 1862.47 541.254 1855.84 535.108" stroke="#6341A9" stroke-width="4" stroke-linejoin="round"/>
<path d="M26.0751 277.149C-6.72826 277.149 -5.31401 214.219 26.0751 213.225L2833.55 205.92C2865.9 205.92 2863.99 265.961 2833.55 265.833L26.0751 277.149Z" stroke="#6341A9" stroke-width="4" stroke-linejoin="round"/>
<path d="M603.421 277.149L607.15 673.482L622.799 673.905L618.519 277.149H603.421Z" stroke="#6341A9" stroke-width="4" stroke-linejoin="round"/>
<path d="M2223.2 272.199L2226.93 668.532L2242.56 668.955L2238.28 272.199H2223.2Z" stroke="#6341A9" stroke-width="4" stroke-linejoin="round"/>
<path d="M1378.78 385.272L1188.5 534.262H1168.66L1386.18 365.289" stroke="#6341A9" stroke-width="4" stroke-linejoin="round"/>
<path d="M1488.93 386.652L1527.2 425.33L1537.27 414.363L1479.3 361.388" stroke="#6341A9" stroke-width="4" stroke-linejoin="round"/>
<path d="M1566.42 455.342L1674.98 534.262L1696.95 534.759L1577.7 444.632L1566.42 455.342Z" stroke="#6341A9" stroke-width="4" stroke-linejoin="round"/>
<path d="M2835.83 233.687H2607.62" stroke="#6341A9" stroke-width="4" stroke-linejoin="round"/>
<path d="M2520.32 234.422H2292.11" stroke="#6341A9" stroke-width="4" stroke-linejoin="round"/>
<path d="M2209.11 234.422H1980.9" stroke="#6341A9" stroke-width="4" stroke-linejoin="round"/>
<path d="M1888.92 236.226H1660.71" stroke="#6341A9" stroke-width="4" stroke-linejoin="round"/>
<path d="M1604.66 241.543H1446.81" stroke="#6341A9" stroke-width="4" stroke-linejoin="round"/>
<path d="M1413.24 241.543H1290.16" stroke="#6341A9" stroke-width="4" stroke-linejoin="round"/>
<path d="M1214.51 241.543H986.28" stroke="#6341A9" stroke-width="4" stroke-linejoin="round"/>
<path d="M911.086 244.801H682.877" stroke="#6341A9" stroke-width="4" stroke-linejoin="round"/>
<path d="M613.101 244.801H384.892" stroke="#6341A9" stroke-width="4" stroke-linejoin="round"/>
<path d="M311.791 244.801H83.5637" stroke="#6341A9" stroke-width="4" stroke-linejoin="round"/>
<path d="M1634.16 935.158V954.295V970.524H1684.44V954.773V935.158H1634.16Z" stroke="#6341A9" stroke-width="4" stroke-linejoin="round"/>
<path d="M977.344 158.293C976.954 157.902 976.321 157.902 975.93 158.293L969.566 164.657C969.176 165.047 969.176 165.681 969.566 166.071C969.957 166.462 970.59 166.462 970.98 166.071L976.637 160.414L982.294 166.071C982.685 166.462 983.318 166.462 983.708 166.071C984.099 165.681 984.099 165.047 983.708 164.657L977.344 158.293ZM975.93 774.707C976.321 775.098 976.954 775.098 977.344 774.707L983.708 768.343C984.099 767.953 984.099 767.319 983.708 766.929C983.318 766.538 982.685 766.538 982.294 766.929L976.637 772.586L970.98 766.929C970.59 766.538 969.957 766.538 969.566 766.929C969.176 767.319 969.176 767.953 969.566 768.343L975.93 774.707ZM975.637 159V774H977.637V159H975.637Z" fill="#6341A9"/>
<path d="M726.93 321.293C726.54 321.683 726.54 322.317 726.93 322.707L733.294 329.071C733.685 329.462 734.318 329.462 734.708 329.071C735.099 328.681 735.099 328.047 734.708 327.657L729.051 322L734.708 316.343C735.099 315.953 735.099 315.319 734.708 314.929C734.318 314.538 733.685 314.538 733.294 314.929L726.93 321.293ZM2013.34 322.707C2013.73 322.317 2013.73 321.683 2013.34 321.293L2006.98 314.929C2006.59 314.538 2005.96 314.538 2005.57 314.929C2005.18 315.319 2005.18 315.953 2005.57 316.343L2011.22 322L2005.57 327.657C2005.18 328.047 2005.18 328.681 2005.57 329.071C2005.96 329.462 2006.59 329.462 2006.98 329.071L2013.34 322.707ZM727.637 323L2012.64 323V321L727.637 321V323Z" fill="#6341A9"/>
<path d="M192.037 84.15V86H177.437V84.15H181.237V53.35H177.437V51.5H192.037V53.35H188.287V75.65L200.537 56.95V53.35H196.787V51.5H211.387V53.35H207.637V84.15H211.387V86H196.787V84.15H200.537V60.75L188.287 79.45V84.15H192.037ZM234.136 84.15V62.7H227.836C227.836 66.45 227.786 69.3 227.786 71.3C227.736 73.3 227.686 75.05 227.586 76.45C227.286 80.35 226.686 83.05 225.786 84.5C224.886 86 223.336 86.7 221.186 86.7C219.686 86.7 218.536 86.3 217.636 85.45C216.736 84.65 216.336 83.45 216.336 81.95C216.336 80.85 216.636 79.95 217.286 79.25C217.886 78.55 218.736 78.15 219.836 78.15C220.836 78.15 221.586 78.45 222.186 79C222.736 79.6 223.036 80.3 223.036 81.15C223.036 82.15 222.736 82.9 222.186 83.4C221.636 83.95 220.836 84.25 219.836 84.25C219.986 84.45 220.236 84.6 220.536 84.7C220.836 84.8 221.236 84.85 221.636 84.85C222.936 84.85 223.836 84.1 224.386 82.65C224.886 81.2 225.236 78.55 225.436 74.65C225.486 73.35 225.536 71.75 225.536 69.95C225.536 68.15 225.586 65.75 225.586 62.7H221.436V60.8H244.586V62.7H240.986V84.15H244.586V86H230.636V84.15H234.136ZM261.108 62.7V71.1H264.708C268.208 71.1 270.958 71.75 272.908 73C274.858 74.3 275.858 76.1 275.858 78.5C275.858 80.9 274.858 82.75 272.908 84.05C270.958 85.35 268.208 86 264.708 86H250.658V84.15H254.258V62.7H250.658V60.8H265.558V62.7H261.108ZM263.458 73H261.108V84.15H263.508C265.258 84.15 266.608 83.7 267.508 82.75C268.408 81.8 268.858 80.35 268.858 78.45C268.858 76.55 268.408 75.2 267.558 74.3C266.708 73.45 265.358 73 263.458 73ZM296.136 72.45H298.186V62.7H296.286C294.586 62.7 293.186 63.15 292.086 64.05C290.986 64.95 290.486 66.2 290.486 67.7C290.486 69.2 290.986 70.4 291.986 71.2C292.986 72.05 294.386 72.45 296.136 72.45ZM293.386 76.6C293.286 76.9 293.086 77.4 292.836 78.15C292.586 78.9 292.286 79.9 291.936 81.1C291.286 83.2 290.486 84.65 289.536 85.45C288.536 86.3 287.286 86.7 285.686 86.7C283.686 86.7 282.286 86.1 281.486 84.85C280.636 83.65 280.236 81.5 280.236 78.4H282.036C282.036 80.2 282.136 81.6 282.436 82.55C282.686 83.5 283.086 83.95 283.586 83.95C283.836 83.95 284.036 83.85 284.236 83.65C284.436 83.45 284.836 82.35 285.436 80.35C285.986 78.45 286.636 77.1 287.436 76.4C288.186 75.7 289.936 74.8 292.636 73.7C289.736 73.55 287.486 72.95 285.886 71.85C284.286 70.8 283.486 69.35 283.486 67.45C283.486 65.35 284.486 63.75 286.486 62.55C288.486 61.4 291.286 60.8 294.786 60.8H308.686V62.7H305.036V84.15H308.686V86H294.636V84.15H298.186V74.2H297.086C296.186 74.2 295.486 74.4 294.886 74.8C294.286 75.2 293.786 75.8 293.386 76.6ZM346.603 86H330.103V84.15H333.903V53.35H330.103V51.5H342.303C347.103 51.5 350.753 52.35 353.253 54.05C355.753 55.75 357.053 58.15 357.053 61.35C357.053 64.65 355.753 67.2 353.253 69C350.753 70.85 347.203 71.75 342.653 71.75H340.953V84.15H346.603V86ZM349.803 61.4C349.803 58.55 349.203 56.5 348.003 55.25C346.803 54 344.953 53.35 342.403 53.35H340.953V69.9H342.453C344.953 69.9 346.803 69.25 348.003 67.9C349.203 66.55 349.803 64.4 349.803 61.4ZM366.937 99C365.237 99 363.887 98.5 362.887 97.5C361.887 96.5 361.387 95.15 361.387 93.45C361.387 92.25 361.687 91.25 362.387 90.55C363.037 89.85 363.937 89.45 365.087 89.45C366.137 89.45 366.937 89.75 367.537 90.35C368.087 90.95 368.387 91.8 368.387 92.85C368.387 93.8 368.037 94.55 367.437 95.15C366.787 95.75 365.937 96.05 364.837 96.15C365.037 96.45 365.287 96.7 365.637 96.85C365.937 97 366.387 97.05 366.937 97.05C368.037 97.05 369.037 96.5 369.837 95.4C370.637 94.3 371.687 92 372.987 88.45L373.587 86.8L363.737 62.7H360.337V60.8H374.087V62.7H370.337L376.537 78.05L382.087 62.7H378.537V60.8H387.737V62.7H384.637L376.037 86.75C374.137 91.95 372.637 95.25 371.487 96.75C370.287 98.25 368.787 99 366.937 99ZM406.57 84.15V62.7H399.42C399.22 66.7 399.07 69.5 398.97 71C398.82 72.55 398.67 73.9 398.47 75.05C398.12 77.25 397.67 79.1 397.17 80.6C396.62 82.1 395.97 83.3 395.27 84.15H406.57ZM413.42 62.7V84.15H417.72V93.6H415.87V92.45C415.87 90.35 415.32 88.75 414.22 87.65C413.12 86.55 411.52 86 409.42 86H397.82C395.72 86 394.12 86.55 393.12 87.6C392.07 88.7 391.57 90.3 391.57 92.45V93.6H389.67V84.15H392.32C393.52 82.65 394.37 81.25 394.87 79.95C395.37 78.7 395.77 77.1 396.12 75.15C396.42 73.35 396.62 71.3 396.82 69.1C397.02 66.9 397.12 64.75 397.17 62.7H393.42V60.8H417.37V62.7H413.42ZM436.117 86.7C432.317 86.7 429.267 85.5 426.917 83C424.517 80.55 423.367 77.3 423.367 73.25C423.367 69.4 424.467 66.25 426.767 63.8C429.067 61.4 431.967 60.15 435.467 60.15C438.867 60.15 441.567 61.25 443.567 63.4C445.567 65.55 446.617 68.35 446.617 71.75V72.35C446.617 72.6 446.567 72.9 446.567 73.2H430.467V73.75C430.517 77.55 431.067 80.3 432.117 81.95C433.167 83.65 434.817 84.45 437.117 84.45C438.967 84.45 440.517 83.95 441.717 82.9C442.917 81.9 443.767 80.3 444.367 78.15L446.217 78.45C445.667 81.05 444.517 83.05 442.717 84.5C440.917 86 438.717 86.7 436.117 86.7ZM435.367 62.05C433.767 62.05 432.567 62.8 431.767 64.3C430.967 65.8 430.567 68.15 430.467 71.35H439.817C439.817 67.95 439.467 65.55 438.767 64.15C438.067 62.75 436.917 62.05 435.367 62.05ZM458.77 84.15H462.82V86H452.77V84.15H456.37V62.7H452.77V60.8H464.32L470.87 74.9L477.57 60.8H488.77V62.7H485.12V84.15H488.77V86H474.52V84.15H478.32V64.25L469.32 83.4H467.32L458.77 64.25V84.15ZM516.176 86.7C514.326 86.7 512.926 86.2 511.926 85.2C510.926 84.2 510.376 82.7 510.276 80.65C509.676 82.55 508.676 84 507.226 85.1C505.726 86.2 503.976 86.7 501.976 86.7C499.726 86.7 497.976 86.2 496.726 85.15C495.476 84.15 494.876 82.65 494.876 80.7C494.876 78.7 495.726 77.05 497.526 75.75C499.276 74.45 502.126 73.4 506.026 72.6L509.626 71.85V68.3C509.626 66.25 509.176 64.75 508.376 63.75C507.526 62.8 506.176 62.3 504.376 62.3C503.476 62.3 502.676 62.45 501.976 62.65C501.276 62.9 500.626 63.25 500.026 63.7C501.026 64 501.776 64.4 502.276 65C502.726 65.6 502.976 66.4 502.976 67.35C502.976 68.45 502.626 69.35 501.976 70C501.326 70.65 500.426 70.95 499.276 70.95C498.076 70.95 497.176 70.65 496.526 70C495.876 69.4 495.576 68.5 495.576 67.35C495.576 65.35 496.626 63.65 498.776 62.25C500.926 60.85 503.526 60.15 506.626 60.15C510.026 60.15 512.526 60.8 514.126 62.1C515.676 63.4 516.476 65.5 516.476 68.3V81.6C516.476 82.4 516.576 82.95 516.876 83.35C517.176 83.75 517.576 83.95 518.126 83.95C518.826 83.95 519.326 83.5 519.726 82.55C520.076 81.65 520.276 80.25 520.276 78.4H522.026C522.026 81.35 521.526 83.45 520.626 84.75C519.726 86.05 518.226 86.7 516.176 86.7ZM501.826 79.65C501.826 80.8 502.076 81.65 502.576 82.25C503.076 82.85 503.876 83.1 504.876 83.1C506.376 83.1 507.526 82.45 508.376 81.15C509.176 79.85 509.626 77.95 509.626 75.55V73.45L506.926 74.2C505.126 74.7 503.826 75.4 503.026 76.2C502.226 77.05 501.826 78.2 501.826 79.65ZM537.225 84.15H540.475V86H526.775V84.15H530.375V62.7H526.775V60.8H540.475V62.7H537.225V72H546.675V62.7H543.425V60.8H557.175V62.7H553.525V84.15H557.175V86H543.425V84.15H546.675V73.9H537.225V84.15Z" fill="#6341A9"/>
<path d="M171.637 106H562.637L802.137 259.5" stroke="#6341A9" stroke-width="4"/>
<path d="M1193.64 264L1041.14 65.5H1636.14" stroke="#6341A9" stroke-width="4"/>
</svg>
