<svg width="1848" height="664" viewBox="0 0 1848 664" fill="none" xmlns="http://www.w3.org/2000/svg">
<path d="M3.10596 254.872V43.2009C3.3819 14.9405 18.3706 2.58516 45.5133 3.3754H1368.3C1396.2 40.8428 1422.6 34.3578 1448.18 3.36285H1844.92V254.885C1727.37 276.246 1758.41 399.172 1844.92 403.525V624.855L1813.46 661.369H1436.09C1408.52 636.307 1381.93 637.122 1356.21 661.356H48.8497C21.3181 660.754 6.36709 649.866 3.11849 629.433V408.103C90.6173 385.625 102.746 277.35 3.11849 254.897L3.10596 254.872Z" stroke="white" stroke-width="5" stroke-miterlimit="10"/>
<path d="M1402.2 108.276V168.761" stroke="white" stroke-width="2" stroke-miterlimit="10"/>
<path d="M1402.2 199.003V259.488" stroke="white" stroke-width="2" stroke-miterlimit="10"/>
<path d="M1402.2 292.478V352.962" stroke="white" stroke-width="2" stroke-miterlimit="10"/>
<path d="M1402.2 391.458V451.943" stroke="white" stroke-width="2" stroke-miterlimit="10"/>
<path d="M1402.2 495.933V556.417" stroke="white" stroke-width="2" stroke-miterlimit="10"/>
<path d="M1506.33 247.885L1607.2 326.997L1697.5 311.519C1698.87 311.08 1700.18 310.879 1701.41 310.879C1715.4 310.879 1720.33 336.894 1705.72 342.739L1468.5 378.965L1473.5 361.278L1460.6 323.686L1498.12 350.228L1530.96 336.392L1506.33 247.885ZM1506.33 244.122C1505.6 244.122 1504.87 244.336 1504.23 244.75C1502.88 245.653 1502.26 247.321 1502.7 248.889L1526.45 334.197L1498.59 345.938L1462.77 320.613C1462.11 320.148 1461.35 319.923 1460.6 319.923C1459.81 319.923 1459 320.174 1458.34 320.675C1457.03 321.654 1456.51 323.36 1457.03 324.902L1469.55 361.379L1464.86 377.936C1464.51 379.165 1464.81 380.495 1465.66 381.448C1466.38 382.264 1467.42 382.715 1468.48 382.715C1468.67 382.715 1468.86 382.703 1469.05 382.678L1706.27 346.452C1706.56 346.414 1706.84 346.339 1707.1 346.226C1716.83 342.338 1719.52 331.864 1717.86 323.222C1716 313.588 1709.39 307.116 1701.41 307.116C1699.84 307.116 1698.23 307.367 1696.63 307.843L1608.2 322.996L1508.65 244.913C1507.97 244.386 1507.14 244.11 1506.33 244.11V244.122Z" fill="white"/>
</svg>
