<svg width="427" height="509" viewBox="0 0 427 509" fill="none" xmlns="http://www.w3.org/2000/svg">
<circle cx="103.5" cy="323.083" r="38.5" stroke="white" stroke-width="3"/>
<path d="M317.299 67H34.9349H3V505.662H26.874H302.783L323.755 481.319V333.766C266.083 330.865 245.387 248.914 323.755 234.673L317.299 67Z" stroke="white" stroke-width="5" stroke-miterlimit="10"/>
<path d="M29.72 168.413C28.67 168.413 27.83 168.083 27.2 167.423C26.57 166.763 26.27 165.833 26.27 164.633C26.27 163.973 26.45 163.433 26.84 163.013C27.2 162.593 27.71 162.383 28.37 162.383C28.97 162.383 29.42 162.593 29.78 162.953C30.14 163.343 30.32 163.823 30.32 164.393C30.32 165.023 30.11 165.503 29.72 165.863C29.33 166.223 28.76 166.403 28.01 166.403C28.13 166.733 28.37 166.973 28.67 167.153C28.97 167.333 29.36 167.393 29.81 167.393C30.47 167.393 31.04 167.183 31.52 166.703C32 166.223 32.6 165.113 33.35 163.343L26.42 148.373H24.14V147.383H33.32V148.373H29.72L34.88 159.503L38.99 148.373H36.2V147.383H42.35V148.373H40.25L35.78 160.253C34.4 163.883 33.38 166.163 32.66 167.063C31.94 167.963 30.95 168.413 29.72 168.413ZM51.4777 167.093V154.013H46.7077C46.7077 155.093 46.6477 156.323 46.5577 157.673C46.4677 159.023 46.3477 160.223 46.2277 161.243C45.9877 162.743 45.7477 163.943 45.4477 164.903C45.1477 165.863 44.7877 166.613 44.3677 167.093H51.4777ZM54.5677 154.013V167.093H57.2377V172.523H56.2477V171.773C56.2477 170.513 55.9477 169.583 55.3477 168.983C54.7477 168.383 53.8177 168.083 52.6177 168.083H45.6877C44.4577 168.083 43.5577 168.383 42.9577 168.983C42.3577 169.583 42.0577 170.513 42.0577 171.773V172.523H41.0977V167.093H42.7777C43.2877 166.733 43.7377 166.073 44.0977 165.113C44.4577 164.153 44.7577 162.923 44.9977 161.363C45.0877 160.703 45.1777 159.863 45.2677 158.873C45.3277 157.913 45.4177 156.293 45.5077 154.013H43.1677V153.053H57.1477V154.013H54.5677ZM68.165 152.693C70.145 152.693 71.855 153.443 73.235 154.943C74.615 156.443 75.335 158.303 75.335 160.583C75.335 162.863 74.615 164.753 73.235 166.223C71.855 167.693 70.145 168.413 68.165 168.413C66.095 168.413 64.385 167.693 63.065 166.253C61.715 164.813 61.055 162.923 61.055 160.583C61.055 158.243 61.715 156.353 63.065 154.883C64.385 153.443 66.095 152.693 68.165 152.693ZM68.165 153.713C66.815 153.713 65.825 154.253 65.225 155.333C64.595 156.413 64.295 158.183 64.295 160.583C64.295 162.983 64.595 164.723 65.225 165.803C65.825 166.883 66.815 167.423 68.165 167.423C69.455 167.423 70.445 166.853 71.105 165.713C71.765 164.573 72.095 162.863 72.095 160.583C72.095 158.303 71.765 156.593 71.105 155.453C70.445 154.313 69.455 153.713 68.165 153.713ZM87.2858 153.083C89.2658 153.083 90.9458 153.803 92.3258 155.213C93.7058 156.623 94.4258 158.393 94.4258 160.523C94.4258 162.653 93.6758 164.513 92.2058 166.073C90.7358 167.633 89.0558 168.413 87.1358 168.413C84.9758 168.413 83.2058 167.573 81.8258 165.893C80.4458 164.213 79.7558 161.963 79.7558 159.203C79.7558 155.393 80.3858 152.483 81.6758 150.503C82.9658 148.523 85.0958 147.323 88.0358 146.963C88.3958 146.933 88.8758 146.903 89.5358 146.843C90.1658 146.783 90.6158 146.753 90.8858 146.693C91.6358 146.603 92.1758 146.423 92.4758 146.183C92.7758 145.943 92.9258 145.613 92.9258 145.163H93.8258C93.8258 146.153 93.6758 146.963 93.3758 147.563C93.0758 148.193 92.6258 148.643 92.0258 148.943C91.7258 149.093 91.3958 149.213 91.0358 149.303C90.6458 149.423 89.5358 149.543 87.7058 149.693C86.1458 149.843 84.9758 150.113 84.1658 150.533C83.3258 150.953 82.6958 151.523 82.2158 152.273C81.7658 152.993 81.4358 153.833 81.2258 154.853C80.9858 155.873 80.8958 157.073 80.8958 158.453H81.0758C81.3458 156.803 82.0358 155.483 83.1758 154.523C84.3158 153.563 85.6658 153.083 87.2858 153.083ZM87.1358 154.073C85.7858 154.073 84.7658 154.613 84.1058 155.693C83.4158 156.773 83.0858 158.393 83.0858 160.523C83.0858 162.713 83.4158 164.423 84.1358 165.623C84.8258 166.823 85.8158 167.423 87.1358 167.423C88.3358 167.423 89.3258 166.793 90.0758 165.533C90.7958 164.273 91.1858 162.623 91.1858 160.553C91.1858 158.513 90.8258 156.923 90.1058 155.783C89.3858 154.643 88.3958 154.073 87.1358 154.073ZM105.654 168.413C103.554 168.413 101.874 167.693 100.554 166.253C99.2337 164.813 98.5737 162.893 98.5737 160.493C98.5737 158.213 99.2037 156.323 100.494 154.883C101.754 153.443 103.374 152.693 105.354 152.693C107.244 152.693 108.744 153.323 109.854 154.583C110.964 155.843 111.534 157.463 111.534 159.503C111.534 159.593 111.504 159.713 111.504 159.863C111.504 160.043 111.474 160.163 111.474 160.283H101.814V160.613C101.814 163.013 102.114 164.723 102.774 165.773C103.434 166.823 104.454 167.333 105.894 167.333C107.034 167.333 107.994 167.033 108.714 166.433C109.434 165.833 110.004 164.843 110.424 163.493L111.354 163.703C110.994 165.173 110.334 166.313 109.314 167.153C108.294 167.993 107.064 168.413 105.654 168.413ZM105.294 153.713C104.154 153.713 103.314 154.163 102.774 155.063C102.234 155.963 101.904 157.373 101.844 159.293H108.384C108.384 157.343 108.144 155.933 107.664 155.033C107.154 154.163 106.374 153.713 105.294 153.713ZM120.94 167.093H123.19V168.083H115.51V167.093H117.85V154.013H115.51V153.053H123.19V154.013H120.94V159.773H127.42V154.013H125.17V153.053H132.82V154.013H130.51V167.093H132.82V168.083H125.17V167.093H127.42V160.733H120.94V167.093ZM32 207.083H25.61V206.093H27.95V193.043H25.61V192.053H32C34.43 192.053 36.17 192.353 37.25 192.953C38.3 193.553 38.84 194.483 38.84 195.743C38.84 196.703 38.51 197.453 37.85 198.053C37.19 198.653 36.29 199.013 35.09 199.133C36.59 199.283 37.76 199.673 38.57 200.303C39.38 200.933 39.8 201.773 39.8 202.853C39.8 204.293 39.17 205.343 37.97 206.033C36.74 206.753 34.76 207.083 32 207.083ZM35.72 195.893C35.72 194.933 35.39 194.213 34.79 193.733C34.16 193.253 33.17 193.013 31.85 193.013H31.04V198.803H32.18C33.53 198.803 34.46 198.593 34.97 198.173C35.45 197.753 35.72 196.973 35.72 195.893ZM31.04 199.733V206.123H32.15C33.71 206.123 34.85 205.883 35.54 205.343C36.23 204.833 36.59 203.993 36.59 202.853C36.59 201.743 36.26 200.933 35.63 200.453C35 199.973 33.83 199.733 32.15 199.733H31.04ZM58.5099 206.093H60.8799V207.083H53.0799V206.093H55.4199V193.013H53.0799V192.053H60.8799V193.013H58.5099V202.853L65.0199 194.483V193.013H62.6499V192.053H70.4199V193.013H68.1099V206.093H70.4199V207.083H62.6499V206.093H65.0199V196.163L58.5099 204.533V206.093ZM85.9702 202.493L86.9302 202.703C86.5702 204.263 85.9402 205.433 85.0102 206.213C84.0502 207.023 82.8802 207.413 81.4402 207.413C79.3402 207.413 77.6902 206.723 76.4602 205.343C75.2002 203.963 74.6002 202.043 74.6002 199.643C74.6002 197.213 75.2302 195.293 76.5502 193.853C77.8702 192.413 79.5802 191.693 81.7102 191.693C83.2102 191.693 84.4102 192.113 85.3402 192.923C86.2402 193.733 86.7202 194.813 86.7202 196.133C86.7202 196.763 86.5402 197.273 86.2102 197.633C85.8502 197.993 85.4002 198.173 84.8302 198.173C84.1702 198.173 83.6902 198.023 83.3302 197.663C82.9702 197.333 82.8202 196.853 82.8202 196.253C82.8202 195.713 83.0002 195.233 83.3602 194.873C83.7202 194.513 84.2302 194.303 84.9202 194.183C84.6802 193.703 84.2902 193.313 83.7802 193.073C83.2402 192.833 82.6102 192.683 81.8602 192.683C80.4802 192.683 79.4602 193.253 78.8002 194.363C78.1402 195.473 77.8402 197.243 77.8402 199.643C77.8402 201.803 78.1702 203.453 78.8302 204.593C79.4902 205.763 80.4202 206.333 81.6802 206.333C82.7902 206.333 83.6902 206.033 84.3802 205.433C85.0702 204.833 85.6102 203.843 85.9702 202.493ZM96.0873 206.093H98.1873V207.083H90.6573V206.093H92.9973V193.013H90.6573V192.053H107.367V193.013H105.057V206.093H107.367V207.083H99.8673V206.093H101.967V193.013H96.0873V206.093ZM118.613 191.693C120.593 191.693 122.303 192.443 123.683 193.943C125.063 195.443 125.783 197.303 125.783 199.583C125.783 201.863 125.063 203.753 123.683 205.223C122.303 206.693 120.593 207.413 118.613 207.413C116.543 207.413 114.833 206.693 113.513 205.253C112.163 203.813 111.503 201.923 111.503 199.583C111.503 197.243 112.163 195.353 113.513 193.883C114.833 192.443 116.543 191.693 118.613 191.693ZM118.613 192.713C117.263 192.713 116.273 193.253 115.673 194.333C115.043 195.413 114.743 197.183 114.743 199.583C114.743 201.983 115.043 203.723 115.673 204.803C116.273 205.883 117.263 206.423 118.613 206.423C119.903 206.423 120.893 205.853 121.553 204.713C122.213 203.573 122.543 201.863 122.543 199.583C122.543 197.303 122.213 195.593 121.553 194.453C120.893 193.313 119.903 192.713 118.613 192.713ZM140.014 206.093V193.013H135.844C135.844 195.113 135.814 196.763 135.784 198.023C135.754 199.283 135.724 200.333 135.664 201.233C135.484 203.573 135.094 205.163 134.554 206.063C134.014 206.963 133.114 207.413 131.854 207.413C131.014 207.413 130.354 207.173 129.844 206.693C129.334 206.213 129.094 205.493 129.094 204.593C129.094 203.993 129.244 203.483 129.604 203.063C129.964 202.673 130.444 202.463 131.044 202.463C131.584 202.463 132.034 202.643 132.364 202.943C132.694 203.273 132.874 203.693 132.874 204.173C132.874 204.713 132.694 205.163 132.334 205.463C131.974 205.763 131.464 205.913 130.834 205.913C130.924 206.093 131.074 206.213 131.284 206.273C131.464 206.333 131.734 206.363 132.034 206.363C132.814 206.363 133.414 205.913 133.804 205.013C134.164 204.113 134.404 202.553 134.524 200.273C134.554 199.583 134.584 198.773 134.584 197.813C134.584 196.883 134.614 195.293 134.614 193.013H132.094V192.053H145.414V193.013H143.104V206.093H145.414V207.083H137.524V206.093H140.014ZM154.738 193.013V198.443H156.778C158.818 198.443 160.438 198.833 161.578 199.553C162.718 200.273 163.318 201.323 163.318 202.703C163.318 204.113 162.748 205.193 161.608 205.943C160.468 206.723 158.848 207.083 156.778 207.083H149.308V206.093H151.648V193.013H149.308V192.053H157.528V193.013H154.738ZM156.478 199.403H154.738V206.093H156.508C157.708 206.093 158.608 205.823 159.208 205.253C159.808 204.713 160.108 203.843 160.108 202.673C160.108 201.533 159.808 200.693 159.268 200.183C158.698 199.673 157.768 199.403 156.478 199.403ZM179.405 202.913C179.405 204.353 178.805 205.463 177.665 206.243C176.525 207.023 174.995 207.413 173.075 207.413C171.215 207.413 169.775 207.053 168.695 206.333C167.615 205.613 167.105 204.653 167.105 203.453C167.105 202.823 167.255 202.313 167.615 201.953C167.945 201.593 168.425 201.413 169.025 201.413C169.625 201.413 170.075 201.593 170.405 201.923C170.705 202.283 170.885 202.733 170.885 203.303C170.885 203.783 170.705 204.173 170.405 204.473C170.105 204.773 169.655 204.983 169.115 205.073C169.415 205.523 169.865 205.853 170.495 206.093C171.125 206.333 171.875 206.453 172.775 206.453C173.915 206.453 174.755 206.153 175.355 205.553C175.925 204.953 176.225 204.023 176.225 202.823C176.225 201.803 175.925 201.053 175.325 200.573C174.725 200.123 173.705 199.883 172.265 199.883H170.915V198.893H172.265C173.465 198.893 174.335 198.653 174.875 198.143C175.385 197.633 175.655 196.793 175.655 195.653C175.655 194.753 175.385 194.063 174.875 193.583C174.365 193.103 173.645 192.863 172.685 192.863C171.575 192.863 170.705 193.193 170.105 193.853C169.505 194.513 169.085 195.563 168.845 197.003H167.915V191.903H168.785L169.535 193.043C170.105 192.563 170.705 192.233 171.365 192.023C172.025 191.813 172.775 191.693 173.645 191.693C175.235 191.693 176.495 192.053 177.395 192.713C178.295 193.373 178.775 194.333 178.775 195.593C178.775 196.613 178.415 197.423 177.755 198.053C177.065 198.713 176.135 199.103 174.935 199.283C176.315 199.463 177.395 199.853 178.205 200.483C178.985 201.113 179.405 201.923 179.405 202.913ZM190.809 191.693C192.789 191.693 194.499 192.443 195.879 193.943C197.259 195.443 197.979 197.303 197.979 199.583C197.979 201.863 197.259 203.753 195.879 205.223C194.499 206.693 192.789 207.413 190.809 207.413C188.739 207.413 187.029 206.693 185.709 205.253C184.359 203.813 183.699 201.923 183.699 199.583C183.699 197.243 184.359 195.353 185.709 193.883C187.029 192.443 188.739 191.693 190.809 191.693ZM190.809 192.713C189.459 192.713 188.469 193.253 187.869 194.333C187.239 195.413 186.939 197.183 186.939 199.583C186.939 201.983 187.239 203.723 187.869 204.803C188.469 205.883 189.459 206.423 190.809 206.423C192.099 206.423 193.089 205.853 193.749 204.713C194.409 203.573 194.739 201.863 194.739 199.583C194.739 197.303 194.409 195.593 193.749 194.453C193.089 193.313 192.099 192.713 190.809 192.713ZM208.52 207.083H202.13V206.093H204.47V193.043H202.13V192.053H208.52C210.95 192.053 212.69 192.353 213.77 192.953C214.82 193.553 215.36 194.483 215.36 195.743C215.36 196.703 215.03 197.453 214.37 198.053C213.71 198.653 212.81 199.013 211.61 199.133C213.11 199.283 214.28 199.673 215.09 200.303C215.9 200.933 216.32 201.773 216.32 202.853C216.32 204.293 215.69 205.343 214.49 206.033C213.26 206.753 211.28 207.083 208.52 207.083ZM212.24 195.893C212.24 194.933 211.91 194.213 211.31 193.733C210.68 193.253 209.69 193.013 208.37 193.013H207.56V198.803H208.7C210.05 198.803 210.98 198.593 211.49 198.173C211.97 197.753 212.24 196.973 212.24 195.893ZM207.56 199.733V206.123H208.67C210.23 206.123 211.37 205.883 212.06 205.343C212.75 204.833 213.11 203.993 213.11 202.853C213.11 201.743 212.78 200.933 212.15 200.453C211.52 199.973 210.35 199.733 208.67 199.733H207.56ZM232.569 207.413C231.549 207.413 230.799 207.143 230.289 206.543C229.779 205.973 229.509 205.103 229.449 203.903C229.089 204.983 228.519 205.853 227.679 206.483C226.839 207.113 225.819 207.413 224.649 207.413C223.329 207.413 222.339 207.143 221.619 206.543C220.899 205.943 220.569 205.103 220.569 203.963C220.569 202.853 221.049 201.923 222.069 201.173C223.059 200.423 224.709 199.733 227.049 199.133L229.209 198.563V196.463C229.209 195.263 228.939 194.363 228.429 193.763C227.889 193.163 227.109 192.863 226.059 192.863C225.459 192.863 224.949 192.953 224.469 193.133C223.989 193.313 223.569 193.583 223.209 193.913C223.719 194.093 224.109 194.333 224.379 194.663C224.649 194.993 224.799 195.413 224.799 195.893C224.799 196.493 224.619 196.943 224.289 197.303C223.929 197.663 223.449 197.813 222.849 197.813C222.249 197.813 221.769 197.663 221.439 197.303C221.079 196.943 220.929 196.493 220.929 195.893C220.929 194.753 221.499 193.793 222.669 192.953C223.839 192.113 225.249 191.693 226.929 191.693C228.699 191.693 230.049 192.083 230.949 192.833C231.849 193.583 232.299 194.693 232.299 196.163V204.533C232.299 205.043 232.359 205.433 232.539 205.673C232.719 205.943 232.959 206.063 233.319 206.063C233.799 206.063 234.189 205.763 234.429 205.163C234.669 204.563 234.819 203.693 234.819 202.523H235.719C235.719 204.263 235.449 205.493 234.969 206.273C234.489 207.053 233.679 207.413 232.569 207.413ZM223.779 203.483C223.779 204.233 223.959 204.803 224.319 205.163C224.679 205.553 225.219 205.733 225.879 205.733C226.929 205.733 227.739 205.313 228.339 204.443C228.909 203.573 229.209 202.313 229.209 200.693V199.463L227.379 200.003C226.119 200.363 225.189 200.813 224.619 201.353C224.049 201.893 223.779 202.613 223.779 203.483ZM244.141 206.093H246.391V207.083H238.711V206.093H241.051V193.013H238.711V192.053H246.391V193.013H244.141V198.773H250.621V193.013H248.371V192.053H256.021V193.013H253.711V206.093H256.021V207.083H248.371V206.093H250.621V199.733H244.141V206.093ZM265.332 206.093H267.702V207.083H259.902V206.093H262.242V193.013H259.902V192.053H267.702V193.013H265.332V202.853L271.842 194.483V193.013H269.472V192.053H277.242V193.013H274.932V206.093H277.242V207.083H269.472V206.093H271.842V196.163L265.332 204.533V206.093ZM286.552 206.093H288.922V207.083H281.122V206.093H283.462V193.013H281.122V192.053H288.922V193.013H286.552V202.853L293.062 194.483V193.013H290.692V192.053H298.462V193.013H296.152V206.093H298.462V207.083H290.692V206.093H293.062V196.163L286.552 204.533V206.093Z" fill="white"/>
<path d="M39.43 493.093H41.68V494.083H33.76V493.093H36.22V474.373H33.76V473.383H42.07V474.373H39.43V484.633L46.99 474.373H44.29V473.383H51.01V474.373H48.43L43.21 481.513L50.59 493.093H52.15V494.083H44.8V493.093H46.93L41.11 484.033L39.43 486.313V493.093ZM67.0382 494.413C66.0182 494.413 65.2682 494.143 64.7582 493.543C64.2482 492.973 63.9782 492.103 63.9182 490.903C63.5582 491.983 62.9882 492.853 62.1482 493.483C61.3082 494.113 60.2882 494.413 59.1182 494.413C57.7982 494.413 56.8082 494.143 56.0882 493.543C55.3682 492.943 55.0382 492.103 55.0382 490.963C55.0382 489.853 55.5182 488.923 56.5382 488.173C57.5282 487.423 59.1782 486.733 61.5182 486.133L63.6782 485.563V483.463C63.6782 482.263 63.4082 481.363 62.8982 480.763C62.3582 480.163 61.5782 479.863 60.5282 479.863C59.9282 479.863 59.4182 479.953 58.9382 480.133C58.4582 480.313 58.0382 480.583 57.6782 480.913C58.1882 481.093 58.5782 481.333 58.8482 481.663C59.1182 481.993 59.2682 482.413 59.2682 482.893C59.2682 483.493 59.0882 483.943 58.7582 484.303C58.3982 484.663 57.9182 484.813 57.3182 484.813C56.7182 484.813 56.2382 484.663 55.9082 484.303C55.5482 483.943 55.3982 483.493 55.3982 482.893C55.3982 481.753 55.9682 480.793 57.1382 479.953C58.3082 479.113 59.7182 478.693 61.3982 478.693C63.1682 478.693 64.5182 479.083 65.4182 479.833C66.3182 480.583 66.7682 481.693 66.7682 483.163V491.533C66.7682 492.043 66.8282 492.433 67.0082 492.673C67.1882 492.943 67.4282 493.063 67.7882 493.063C68.2682 493.063 68.6582 492.763 68.8982 492.163C69.1382 491.563 69.2882 490.693 69.2882 489.523H70.1882C70.1882 491.263 69.9182 492.493 69.4382 493.273C68.9582 494.053 68.1482 494.413 67.0382 494.413ZM58.2482 490.483C58.2482 491.233 58.4282 491.803 58.7882 492.163C59.1482 492.553 59.6882 492.733 60.3482 492.733C61.3982 492.733 62.2082 492.313 62.8082 491.443C63.3782 490.573 63.6782 489.313 63.6782 487.693V486.463L61.8482 487.003C60.5882 487.363 59.6582 487.813 59.0882 488.353C58.5182 488.893 58.2482 489.613 58.2482 490.483ZM85.2395 494.083H73.0295V493.393L81.8195 480.013H77.7395C76.5995 480.013 75.7595 480.313 75.2495 480.853C74.7395 481.423 74.4995 482.383 74.4995 483.703V484.453H73.5095V479.053H85.1195V479.713L76.3295 493.093H81.0095C82.1495 493.093 82.9595 492.823 83.4695 492.253C83.9795 491.683 84.2495 490.723 84.2495 489.373V488.653H85.2395V494.083ZM96.6906 493.093V494.083H88.9506V493.093H91.2906V480.013H88.9506V479.053C90.9606 479.053 92.2506 479.053 92.7906 478.993C93.3306 478.933 93.7206 478.813 93.9606 478.633L94.3806 478.903V493.093H96.6906ZM92.5206 471.103C93.1806 471.103 93.6906 471.313 94.0806 471.703C94.4406 472.093 94.6506 472.573 94.6506 473.143C94.6506 473.743 94.4406 474.223 94.0806 474.613C93.6906 475.003 93.1806 475.183 92.5206 475.183C91.8606 475.183 91.3206 475.003 90.9606 474.613C90.5706 474.223 90.3906 473.743 90.3906 473.143C90.3906 472.573 90.5706 472.093 90.9606 471.703C91.3206 471.313 91.8606 471.103 92.5206 471.103ZM107.645 494.083H100.415V493.093H102.755V480.013H100.415V479.053C101.945 479.053 103.025 479.053 103.625 478.993C104.225 478.933 104.645 478.813 104.915 478.633L105.335 478.903L105.275 482.653C105.455 481.393 105.905 480.433 106.685 479.743C107.435 479.053 108.425 478.693 109.685 478.693C110.825 478.693 111.755 478.993 112.475 479.593C113.165 480.193 113.615 481.033 113.795 482.143C114.035 481.033 114.545 480.193 115.265 479.593C115.985 478.993 116.915 478.693 118.025 478.693C119.705 478.693 120.875 479.143 121.595 479.983C122.285 480.853 122.645 482.233 122.645 484.153V493.093H124.955V494.083H117.755V493.093H119.555V484.363C119.555 482.833 119.345 481.753 118.955 481.093C118.565 480.433 117.905 480.103 117.005 480.103C116.045 480.103 115.325 480.493 114.905 481.213C114.455 481.963 114.245 483.133 114.245 484.693V493.093H116.045V494.083H109.325V493.093H111.155V484.363C111.155 482.833 110.945 481.753 110.555 481.093C110.165 480.433 109.505 480.103 108.605 480.103C107.645 480.103 106.955 480.493 106.505 481.243C106.055 481.993 105.845 483.133 105.845 484.693V493.093H107.645V494.083ZM136.289 493.093V494.083H128.549V493.093H130.889V480.013H128.549V479.053C130.559 479.053 131.849 479.053 132.389 478.993C132.929 478.933 133.319 478.813 133.559 478.633L133.979 478.903V493.093H136.289ZM132.119 471.103C132.779 471.103 133.289 471.313 133.679 471.703C134.039 472.093 134.249 472.573 134.249 473.143C134.249 473.743 134.039 474.223 133.679 474.613C133.289 475.003 132.779 475.183 132.119 475.183C131.459 475.183 130.919 475.003 130.559 474.613C130.169 474.223 129.989 473.743 129.989 473.143C129.989 472.573 130.169 472.093 130.559 471.703C130.919 471.313 131.459 471.103 132.119 471.103ZM145.444 493.093H148.984V494.083H140.014V493.093H142.354V480.013H140.014V479.053C141.844 479.053 142.984 479.053 143.464 478.993C143.914 478.963 144.274 478.843 144.514 478.633L144.934 478.903V483.313C145.144 481.873 145.624 480.763 146.374 479.923C147.094 479.113 148.024 478.693 149.164 478.693C150.184 478.693 151.024 478.993 151.624 479.593C152.224 480.193 152.524 480.943 152.524 481.903C152.524 482.653 152.344 483.223 152.014 483.643C151.654 484.063 151.174 484.243 150.574 484.243C149.914 484.243 149.404 484.063 149.044 483.703C148.684 483.343 148.504 482.863 148.504 482.233C148.504 481.693 148.654 481.273 149.014 480.913C149.374 480.553 149.824 480.343 150.424 480.253C150.244 480.073 150.034 479.923 149.794 479.833C149.554 479.773 149.284 479.713 148.924 479.713C147.814 479.713 146.944 480.403 146.344 481.753C145.744 483.133 145.444 484.993 145.444 487.333V493.093ZM173.914 493.093V494.083H164.704V493.093H167.164V474.373H164.704V473.383H178.864V479.983H177.904V478.723C177.904 477.133 177.544 476.023 176.854 475.363C176.164 474.703 174.934 474.373 173.194 474.373H170.374V483.073H174.184V480.763H175.324V486.733H174.184V484.033H170.374V493.093H173.914ZM190.203 494.083H182.463V493.093H184.803V472.573H182.463V471.583C184.143 471.583 185.313 471.583 185.973 471.523C186.633 471.463 187.113 471.373 187.473 471.193L187.863 471.463V493.093H190.203V494.083ZM201.522 493.093V494.083H193.782V493.093H196.122V480.013H193.782V479.053C195.792 479.053 197.082 479.053 197.622 478.993C198.162 478.933 198.552 478.813 198.792 478.633L199.212 478.903V493.093H201.522ZM197.352 471.103C198.012 471.103 198.522 471.313 198.912 471.703C199.272 472.093 199.482 472.573 199.482 473.143C199.482 473.743 199.272 474.223 198.912 474.613C198.522 475.003 198.012 475.183 197.352 475.183C196.692 475.183 196.152 475.003 195.792 474.613C195.402 474.223 195.222 473.743 195.222 473.143C195.222 472.573 195.402 472.093 195.792 471.703C196.152 471.313 196.692 471.103 197.352 471.103ZM209.206 483.553C209.206 484.843 209.446 485.833 209.956 486.493C210.436 487.183 211.156 487.513 212.056 487.513C212.956 487.513 213.646 487.183 214.156 486.493C214.636 485.833 214.906 484.843 214.906 483.553C214.906 482.233 214.666 481.243 214.186 480.583C213.706 479.923 213.016 479.593 212.056 479.593C211.096 479.593 210.376 479.923 209.896 480.583C209.416 481.243 209.206 482.233 209.206 483.553ZM212.056 491.323C214.456 491.323 216.286 491.773 217.546 492.613C218.806 493.453 219.436 494.713 219.436 496.363C219.436 498.103 218.776 499.453 217.516 500.413C216.226 501.403 214.456 501.883 212.176 501.883C209.836 501.883 208.006 501.493 206.716 500.713C205.396 499.933 204.766 498.853 204.766 497.413C204.766 496.573 205.096 495.793 205.816 495.103C206.506 494.413 207.436 493.933 208.636 493.663C207.706 493.543 207.016 493.213 206.566 492.733C206.086 492.253 205.876 491.623 205.876 490.813C205.876 490.003 206.176 489.313 206.836 488.773C207.496 488.233 208.306 487.933 209.296 487.843C208.306 487.453 207.526 486.883 206.956 486.103C206.386 485.323 206.116 484.483 206.116 483.553C206.116 482.113 206.656 480.943 207.796 480.043C208.936 479.143 210.346 478.693 212.056 478.693C212.476 478.693 212.866 478.723 213.256 478.783C213.646 478.843 214.036 478.933 214.396 479.053H219.916V480.013L216.136 479.923C216.736 480.343 217.186 480.883 217.516 481.483C217.816 482.113 217.996 482.803 217.996 483.553C217.996 484.933 217.396 486.073 216.256 487.003C215.086 487.933 213.676 488.383 212.056 488.383C210.556 488.383 209.506 488.503 208.906 488.743C208.276 488.983 207.976 489.343 207.976 489.853C207.976 490.393 208.246 490.753 208.846 490.993C209.416 491.233 210.496 491.323 212.056 491.323ZM207.646 497.323C207.646 498.433 208.036 499.303 208.876 499.903C209.716 500.503 210.856 500.803 212.296 500.803C213.886 500.803 215.116 500.503 216.016 499.873C216.886 499.243 217.336 498.373 217.336 497.263C217.336 496.183 216.916 495.373 216.106 494.863C215.266 494.383 213.976 494.113 212.176 494.113L209.926 494.053C209.206 494.293 208.636 494.683 208.246 495.253C207.826 495.853 207.646 496.543 207.646 497.323ZM228.057 493.093H230.307V494.083H222.657V493.093H224.997V472.573H222.657V471.583C224.457 471.583 225.657 471.583 226.287 471.523C226.917 471.463 227.367 471.373 227.667 471.193L228.057 471.463V476.173C228.057 476.773 228.027 477.373 228.027 478.003C227.997 478.633 227.877 480.253 227.697 482.833C227.937 481.543 228.507 480.523 229.377 479.803C230.217 479.083 231.297 478.693 232.617 478.693C234.357 478.693 235.677 479.203 236.547 480.193C237.417 481.213 237.867 482.713 237.867 484.693V493.093H240.177V494.083H232.527V493.093H234.777V484.903C234.777 483.343 234.507 482.173 233.967 481.393C233.427 480.643 232.587 480.253 231.447 480.253C230.337 480.253 229.497 480.703 228.927 481.603C228.327 482.503 228.057 483.793 228.057 485.473V493.093ZM249.28 494.413C248.02 494.413 247.06 494.083 246.4 493.423C245.71 492.763 245.38 491.773 245.38 490.513V480.013H242.68V479.353C244.12 479.353 245.29 478.813 246.22 477.733C247.12 476.653 247.6 475.303 247.66 473.683H248.38V479.053H253.09V480.013H248.47V490.693C248.47 491.623 248.59 492.283 248.89 492.703C249.19 493.123 249.64 493.333 250.27 493.333C251.02 493.333 251.56 493.003 251.89 492.283C252.22 491.563 252.4 490.423 252.4 488.803H253.3C253.3 490.873 252.97 492.313 252.34 493.153C251.71 493.993 250.69 494.413 249.28 494.413Z" fill="white"/>
<circle cx="143.5" cy="364.083" r="38.5" stroke="white" stroke-width="3"/>
<circle cx="171.5" cy="318.083" r="38.5" stroke="white" stroke-width="3"/>
<rect x="108.5" y="33.5" width="317" height="74" fill="#6341A9" stroke="white" stroke-width="3"/>
<path d="M129.05 55.88C131.72 55.88 133.88 56.93 135.53 58.97C137.18 61.04 138.02 63.59 138.02 66.65C138.02 69.71 137.18 72.29 135.53 74.33C133.88 76.4 131.72 77.42 129.05 77.42C126.35 77.42 124.19 76.4 122.54 74.33C120.89 72.29 120.08 69.71 120.08 66.65C120.08 63.59 120.89 61.04 122.54 58.97C124.19 56.93 126.35 55.88 129.05 55.88ZM129.05 57.02C127.49 57.02 126.35 57.8 125.66 59.33C124.97 60.86 124.64 63.29 124.64 66.65C124.64 70.01 124.97 72.47 125.66 74C126.35 75.53 127.49 76.28 129.05 76.28C130.61 76.28 131.72 75.53 132.41 74C133.1 72.47 133.46 70.01 133.46 66.65C133.46 63.29 133.1 60.86 132.41 59.33C131.72 57.8 130.61 57.02 129.05 57.02ZM153.431 75.89V77H144.371V75.89H146.861V63.02H145.901C144.821 63.08 144.011 63.38 143.501 63.98C142.991 64.58 142.751 65.51 142.751 66.74V67.4H141.641V61.88H156.191V67.4H155.051V66.74C155.051 65.51 154.781 64.58 154.271 63.98C153.761 63.38 152.981 63.08 151.931 63.02H150.971V75.89H153.431ZM167.212 61.49C169.342 61.49 171.142 62.27 172.612 63.77C174.082 65.27 174.832 67.19 174.832 69.5C174.832 71.81 174.082 73.7 172.612 75.2C171.142 76.7 169.342 77.42 167.212 77.42C165.022 77.42 163.222 76.7 161.782 75.2C160.342 73.7 159.622 71.78 159.622 69.41C159.622 67.1 160.342 65.21 161.782 63.71C163.222 62.24 165.022 61.49 167.212 61.49ZM167.212 62.66C166.042 62.66 165.202 63.2 164.662 64.25C164.122 65.33 163.882 67.04 163.882 69.41C163.882 71.84 164.122 73.58 164.662 74.63C165.202 75.71 166.042 76.22 167.212 76.22C168.322 76.22 169.162 75.68 169.732 74.54C170.272 73.43 170.572 71.75 170.572 69.5C170.572 67.22 170.272 65.51 169.732 64.37C169.162 63.23 168.322 62.66 167.212 62.66ZM188.001 76.01C189.081 76.01 189.861 75.53 190.371 74.51C190.851 73.49 191.121 71.87 191.121 69.59C191.121 67.34 190.881 65.69 190.401 64.67C189.921 63.65 189.141 63.11 188.091 63.11C187.101 63.11 186.321 63.65 185.751 64.73C185.181 65.81 184.911 67.25 184.911 69.08V71C184.911 72.74 185.151 74.03 185.631 74.81C186.111 75.62 186.921 76.01 188.001 76.01ZM184.911 83.27H188.331V84.5H178.641V83.27H180.801V63.11H178.641V61.88C180.081 61.88 181.191 61.85 181.941 61.79C182.661 61.73 183.231 61.64 183.591 61.46L184.221 61.73V66.23C184.431 64.79 185.001 63.62 185.901 62.75C186.801 61.91 187.941 61.46 189.321 61.46C191.061 61.46 192.501 62.21 193.671 63.71C194.811 65.21 195.411 67.1 195.411 69.38C195.411 71.66 194.751 73.58 193.491 75.11C192.231 76.67 190.671 77.42 188.841 77.42C187.911 77.42 187.131 77.27 186.501 76.97C185.871 76.67 185.331 76.16 184.911 75.5V83.27ZM206.568 77H199.188V75.89H201.348V63.02H199.188V61.88H206.568C209.028 61.88 210.828 62.18 211.968 62.78C213.078 63.38 213.648 64.28 213.648 65.54C213.648 66.53 213.288 67.34 212.568 67.94C211.848 68.54 210.828 68.93 209.568 69.05C211.188 69.2 212.388 69.59 213.198 70.19C214.008 70.82 214.428 71.69 214.428 72.77C214.428 74.21 213.798 75.26 212.568 75.95C211.338 76.67 209.328 77 206.568 77ZM209.538 65.78C209.538 64.85 209.268 64.16 208.728 63.71C208.188 63.26 207.318 63.02 206.148 63.02H205.458V68.66H206.478C207.618 68.66 208.398 68.45 208.848 68.03C209.298 67.61 209.538 66.86 209.538 65.78ZM205.458 69.74V75.89H206.358C207.738 75.89 208.758 75.65 209.358 75.17C209.958 74.69 210.288 73.88 210.288 72.77C210.288 71.69 209.988 70.94 209.448 70.46C208.878 69.98 207.858 69.74 206.358 69.74H205.458ZM231.05 77.42C229.94 77.42 229.1 77.12 228.5 76.52C227.9 75.92 227.57 75.02 227.51 73.79C227.15 74.93 226.55 75.8 225.68 76.46C224.78 77.12 223.73 77.42 222.53 77.42C221.18 77.42 220.13 77.12 219.38 76.49C218.63 75.89 218.27 74.99 218.27 73.82C218.27 72.62 218.78 71.63 219.86 70.85C220.91 70.07 222.62 69.44 224.96 68.96L227.12 68.51V66.38C227.12 65.15 226.85 64.25 226.37 63.65C225.86 63.08 225.05 62.78 223.97 62.78C223.43 62.78 222.95 62.87 222.53 62.99C222.11 63.14 221.72 63.35 221.36 63.62C221.96 63.8 222.41 64.04 222.71 64.4C222.98 64.76 223.13 65.24 223.13 65.81C223.13 66.47 222.92 67.01 222.53 67.4C222.14 67.79 221.6 67.97 220.91 67.97C220.19 67.97 219.65 67.79 219.26 67.4C218.87 67.04 218.69 66.5 218.69 65.81C218.69 64.61 219.32 63.59 220.61 62.75C221.9 61.91 223.46 61.49 225.32 61.49C227.36 61.49 228.86 61.88 229.82 62.66C230.75 63.44 231.23 64.7 231.23 66.38V74.36C231.23 74.84 231.29 75.17 231.47 75.41C231.65 75.65 231.89 75.77 232.22 75.77C232.64 75.77 232.94 75.5 233.18 74.93C233.39 74.39 233.51 73.55 233.51 72.44H234.56C234.56 74.21 234.26 75.47 233.72 76.25C233.18 77.03 232.28 77.42 231.05 77.42ZM222.44 73.19C222.44 73.88 222.59 74.39 222.89 74.75C223.19 75.11 223.67 75.26 224.27 75.26C225.17 75.26 225.86 74.87 226.37 74.09C226.85 73.31 227.12 72.17 227.12 70.73V69.47L225.5 69.92C224.42 70.22 223.64 70.64 223.16 71.12C222.68 71.63 222.44 72.32 222.44 73.19ZM247.34 75.89V63.02H243.56C243.56 65.27 243.53 66.98 243.53 68.18C243.5 69.38 243.47 70.43 243.41 71.27C243.23 73.61 242.87 75.23 242.33 76.1C241.79 77 240.86 77.42 239.57 77.42C238.67 77.42 237.98 77.18 237.44 76.67C236.9 76.19 236.66 75.47 236.66 74.57C236.66 73.91 236.84 73.37 237.23 72.95C237.59 72.53 238.1 72.29 238.76 72.29C239.36 72.29 239.81 72.47 240.17 72.8C240.5 73.16 240.68 73.58 240.68 74.09C240.68 74.69 240.5 75.14 240.17 75.44C239.84 75.77 239.36 75.95 238.76 75.95C238.85 76.07 239 76.16 239.18 76.22C239.36 76.28 239.6 76.31 239.84 76.31C240.62 76.31 241.16 75.86 241.49 74.99C241.79 74.12 242 72.53 242.12 70.19C242.15 69.41 242.18 68.45 242.18 67.37C242.18 66.29 242.21 64.85 242.21 63.02H239.72V61.88H253.61V63.02H251.45V75.89H253.61V77H245.24V75.89H247.34ZM263.523 75.89H265.563V77H257.253V75.89H259.413V63.02H257.253V61.88H265.563V63.02H263.523V72.26L269.313 64.55V63.02H267.273V61.88H275.583V63.02H273.423V75.89H275.583V77H267.273V75.89H269.313V66.5L263.523 74.24V75.89ZM296.516 77H288.446V75.89H290.726V57.41H288.446V56.3H303.296V62.72H302.156V61.85C302.156 60.29 301.766 59.15 301.046 58.46C300.296 57.77 299.066 57.41 297.356 57.41H294.956V65.27H296.726C299.126 65.27 301.076 65.81 302.606 66.89C304.106 67.97 304.886 69.41 304.886 71.15C304.886 73.07 304.166 74.51 302.726 75.5C301.286 76.52 299.216 77 296.516 77ZM300.536 71.15C300.536 69.65 300.146 68.48 299.426 67.64C298.706 66.8 297.656 66.38 296.336 66.38H294.956V75.89H296.306C297.746 75.89 298.796 75.53 299.486 74.75C300.176 74 300.536 72.8 300.536 71.15ZM314.586 75.89H316.626V77H308.316V75.89H310.476V63.02H308.316V61.88H316.626V63.02H314.586V72.26L320.376 64.55V63.02H318.336V61.88H326.646V63.02H324.486V75.89H326.646V77H318.336V75.89H320.376V66.5L314.586 74.24V75.89ZM340.199 75.89V63.02H336.419C336.419 65.27 336.389 66.98 336.389 68.18C336.359 69.38 336.329 70.43 336.269 71.27C336.089 73.61 335.729 75.23 335.189 76.1C334.649 77 333.719 77.42 332.429 77.42C331.529 77.42 330.839 77.18 330.299 76.67C329.759 76.19 329.519 75.47 329.519 74.57C329.519 73.91 329.699 73.37 330.089 72.95C330.449 72.53 330.959 72.29 331.619 72.29C332.219 72.29 332.669 72.47 333.029 72.8C333.359 73.16 333.539 73.58 333.539 74.09C333.539 74.69 333.359 75.14 333.029 75.44C332.699 75.77 332.219 75.95 331.619 75.95C331.709 76.07 331.859 76.16 332.039 76.22C332.219 76.28 332.459 76.31 332.699 76.31C333.479 76.31 334.019 75.86 334.349 74.99C334.649 74.12 334.859 72.53 334.979 70.19C335.009 69.41 335.039 68.45 335.039 67.37C335.039 66.29 335.069 64.85 335.069 63.02H332.579V61.88H346.469V63.02H344.309V75.89H346.469V77H338.099V75.89H340.199ZM357.942 77.42C355.662 77.42 353.832 76.7 352.422 75.2C350.982 73.73 350.292 71.78 350.292 69.35C350.292 67.04 350.952 65.15 352.332 63.68C353.712 62.24 355.452 61.49 357.552 61.49C359.592 61.49 361.212 62.15 362.412 63.44C363.612 64.73 364.242 66.41 364.242 68.45V68.81C364.242 68.96 364.212 69.14 364.212 69.32H354.552V69.65C354.582 71.93 354.912 73.58 355.542 74.57C356.172 75.59 357.162 76.07 358.542 76.07C359.652 76.07 360.582 75.77 361.302 75.14C362.022 74.54 362.532 73.58 362.892 72.29L364.002 72.47C363.672 74.03 362.982 75.23 361.902 76.1C360.822 77 359.502 77.42 357.942 77.42ZM357.492 62.63C356.532 62.63 355.812 63.08 355.332 63.98C354.852 64.88 354.612 66.29 354.552 68.21H360.162C360.162 66.17 359.952 64.73 359.532 63.89C359.112 63.05 358.422 62.63 357.492 62.63ZM379.334 75.89V77H370.274V75.89H372.764V63.02H371.804C370.724 63.08 369.914 63.38 369.404 63.98C368.894 64.58 368.654 65.51 368.654 66.74V67.4H367.544V61.88H382.094V67.4H380.954V66.74C380.954 65.51 380.684 64.58 380.174 63.98C379.664 63.38 378.884 63.08 377.834 63.02H376.874V75.89H379.334ZM391.616 75.89H393.656V77H385.346V75.89H387.506V63.02H385.346V61.88H393.656V63.02H391.616V72.26L397.406 64.55V63.02H395.366V61.88H403.676V63.02H401.516V75.89H403.676V77H395.366V75.89H397.406V66.5L391.616 74.24V75.89ZM421.429 77.42C420.349 77.42 419.509 77.15 418.879 76.61C418.249 76.07 417.769 75.11 417.439 73.73C417.139 72.65 416.959 71.99 416.869 71.75C416.749 71.51 416.659 71.27 416.569 71.09C416.299 70.67 415.969 70.34 415.609 70.13C415.219 69.95 414.769 69.83 414.229 69.83H413.569V75.89H415.819V77H407.299V75.89H409.459V63.02H407.299V61.88H415.429V63.02H413.569V68.69H414.589C415.069 68.69 415.459 68.51 415.789 68.15C416.089 67.79 416.449 67.01 416.809 65.78C417.049 64.91 417.289 64.28 417.469 63.86C417.649 63.44 417.859 63.08 418.099 62.78C418.429 62.36 418.849 62.03 419.329 61.82C419.809 61.61 420.349 61.49 420.979 61.49C421.819 61.49 422.509 61.73 423.019 62.21C423.529 62.69 423.799 63.32 423.799 64.13C423.799 64.85 423.619 65.42 423.259 65.78C422.899 66.17 422.419 66.35 421.759 66.35C421.099 66.35 420.589 66.2 420.199 65.84C419.809 65.51 419.629 65.06 419.629 64.49C419.629 64.04 419.779 63.65 420.079 63.32C420.379 62.99 420.799 62.78 421.339 62.69C421.219 62.66 421.099 62.63 421.009 62.6C420.889 62.6 420.799 62.57 420.679 62.57C420.139 62.57 419.689 62.78 419.329 63.14C418.969 63.53 418.579 64.37 418.189 65.63C417.829 66.8 417.499 67.61 417.199 68.09C416.899 68.57 416.539 68.9 416.119 69.11C417.019 69.41 417.739 69.68 418.279 69.92C418.819 70.16 419.299 70.37 419.659 70.58C420.199 70.88 420.589 71.24 420.859 71.6C421.099 71.96 421.369 72.65 421.669 73.67C421.909 74.72 422.119 75.32 422.269 75.5C422.389 75.68 422.569 75.77 422.809 75.77C423.139 75.77 423.379 75.5 423.529 74.96C423.679 74.42 423.769 73.58 423.769 72.44H424.819C424.819 74.3 424.549 75.59 424.009 76.31C423.469 77.06 422.629 77.42 421.429 77.42Z" fill="white"/>
<path d="M118.856 15.7351C118.856 17.2726 118.343 18.5772 117.342 19.6488C116.317 20.7204 114.989 21.2563 113.311 21.2563C111.89 21.2563 110.796 20.9301 110.003 20.2545C109.211 19.6022 108.839 18.6937 108.839 17.5755C108.839 17.063 108.978 16.6437 109.281 16.3175C109.584 15.9914 109.98 15.8283 110.493 15.8283C110.959 15.8283 111.331 15.9914 111.611 16.2942C111.89 16.5971 112.03 16.9698 112.03 17.4124C112.03 17.8783 111.844 18.2744 111.494 18.5539C111.122 18.8568 110.656 19.0198 110.097 19.0198C110.283 19.4858 110.632 19.8352 111.168 20.0915C111.704 20.371 112.333 20.4875 113.079 20.4875C114.127 20.4875 114.896 20.1148 115.408 19.346C115.897 18.6005 116.154 17.4124 116.154 15.7817C116.154 14.2908 115.897 13.1493 115.385 12.4038C114.872 11.6583 114.08 11.2856 113.055 11.2856C112.356 11.2856 111.727 11.472 111.215 11.8447C110.702 12.2174 110.33 12.7532 110.143 13.4288H109.514L110.446 4.9258H115.688C116.247 4.9258 116.689 4.83262 116.969 4.59966C117.248 4.3667 117.412 3.94737 117.505 3.34168L117.551 2.94565H118.297L117.761 7.02244H111.028L110.516 11.7981C110.842 11.3322 111.285 10.9827 111.821 10.7498C112.333 10.5168 112.962 10.4003 113.661 10.4003C115.245 10.4003 116.526 10.9129 117.458 11.9379C118.39 12.9629 118.856 14.2442 118.856 15.7351ZM132.868 20.2312V21H126.088V20.2312H128.371V16.6437H121.709V16.2243L130.049 4.64625H130.887V15.8749H132.868V16.6437H130.887V20.2312H132.868ZM122.967 15.8749H128.371V8.23382L122.967 15.8749ZM146.199 16.2476C146.199 17.7153 145.709 18.9267 144.754 19.8585C143.776 20.7903 142.471 21.2563 140.794 21.2563C139.28 21.2563 138.092 20.8835 137.253 20.1381C136.391 19.3926 135.972 18.4142 135.972 17.1795C135.972 16.667 136.111 16.2476 136.414 15.9215C136.717 15.5953 137.113 15.409 137.626 15.409C138.092 15.409 138.464 15.572 138.744 15.8749C139.023 16.1777 139.163 16.5505 139.163 17.0164C139.163 17.5289 138.977 17.9016 138.651 18.1812C138.301 18.4607 137.812 18.6005 137.206 18.6005C137.439 19.2295 137.812 19.6954 138.371 20.0216C138.93 20.3477 139.606 20.4875 140.398 20.4875C141.376 20.4875 142.122 20.1148 142.681 19.3693C143.24 18.6238 143.496 17.5755 143.496 16.2476C143.473 14.9896 143.193 13.9879 142.658 13.2425C142.099 12.497 141.423 12.101 140.584 12.101C140.258 12.101 140.002 12.1475 139.792 12.2174C139.583 12.2873 139.35 12.4038 139.117 12.5902L138.79 12.2174L143.45 7.02244H140.328C139.559 7.02244 139.023 7.04573 138.744 7.06903C138.441 7.11562 138.208 7.16221 138.045 7.25539C137.789 7.37187 137.626 7.58154 137.533 7.86109C137.439 8.16394 137.393 8.65315 137.393 9.30544V9.93443H136.624V4.9258H145.686V5.71786L140.677 11.2856C142.518 11.4953 143.892 12.0078 144.824 12.8231C145.733 13.6385 146.199 14.78 146.199 16.2476ZM159.418 15.7351C159.418 17.2726 158.906 18.5772 157.904 19.6488C156.879 20.7204 155.551 21.2563 153.874 21.2563C152.453 21.2563 151.358 20.9301 150.566 20.2545C149.774 19.6022 149.401 18.6937 149.401 17.5755C149.401 17.063 149.541 16.6437 149.844 16.3175C150.146 15.9914 150.542 15.8283 151.055 15.8283C151.521 15.8283 151.894 15.9914 152.173 16.2942C152.453 16.5971 152.592 16.9698 152.592 17.4124C152.592 17.8783 152.406 18.2744 152.057 18.5539C151.684 18.8568 151.218 19.0198 150.659 19.0198C150.845 19.4858 151.195 19.8352 151.73 20.0915C152.266 20.371 152.895 20.4875 153.641 20.4875C154.689 20.4875 155.458 20.1148 155.97 19.346C156.46 18.6005 156.716 17.4124 156.716 15.7817C156.716 14.2908 156.46 13.1493 155.947 12.4038C155.435 11.6583 154.642 11.2856 153.617 11.2856C152.919 11.2856 152.29 11.472 151.777 11.8447C151.265 12.2174 150.892 12.7532 150.705 13.4288H150.076L151.008 4.9258H156.25C156.809 4.9258 157.252 4.83262 157.531 4.59966C157.811 4.3667 157.974 3.94737 158.067 3.34168L158.114 2.94565H158.859L158.323 7.02244H151.591L151.078 11.7981C151.404 11.3322 151.847 10.9827 152.383 10.7498C152.895 10.5168 153.524 10.4003 154.223 10.4003C155.807 10.4003 157.089 10.9129 158.02 11.9379C158.952 12.9629 159.418 14.2442 159.418 15.7351Z" fill="white"/>
</svg>
