<svg width="1156" height="730" viewBox="0 0 1156 730" fill="none" xmlns="http://www.w3.org/2000/svg">
<path d="M722.293 271.986L689.485 248.277L652.557 274.211L659.713 282.483L658.961 318.941L650.667 333.6H615.996L563.24 298.269H544.396C537.195 295.005 531.456 291.349 529.698 286.646V246.777H540.625C549.671 247.065 549.925 236.55 540.249 235.878L529.698 234.752V222.728C525.883 215.956 521.43 212.309 516.321 211.829H502.568V168.984C502.349 157.824 489.585 157.387 488.622 168.984V212.579C478.622 214.473 469.602 218.679 462.245 226.864L455.464 235.136V242.649L464.134 243.775V286.646C464.624 293.443 458.911 297.457 449.436 299.77H437.004L435.123 230.616H446.051L445.674 208.818H179.248V227.239C182.817 237.963 192.135 245.965 207.13 251.297L240.664 253.932C253.35 259.098 262.536 266.916 262.519 281.742L262.318 471.681H183.325L182.074 354.752H150.727L126.274 332.867L-108.814 333.496L-79.7332 380.913V473.199H-120.31L-114.842 483.452L-113.276 522.431H196.264V499.045H207.988V522.431H278.337V496.707H290.839V522.431H362.754V598.051H561.289L569.89 548.932L684.009 537.239L779.37 517.745L787.97 522.422L941.17 523.199V481.096H948.204L957.583 454.586V380.895L948.983 367.265L945.859 336.079L938.825 329.063H926.323L926.402 314.412H918.423L919.421 185.101C920.505 177.553 926.656 173.304 935.046 170.511C927.557 167.475 921.757 163.784 920.75 158.243L920.086 150.948C920.322 126.462 868.424 128.775 868.555 150.948L868.888 156.585C868.441 161.497 861.556 166.044 853.262 170.511C863.332 174.159 870.559 178.469 873.542 183.775L874.207 313.417L863.901 313.749V331.986L724.612 332.318L717.298 321.044L716.633 282.248L722.284 271.969L792.432 271.305L792.1 280.921" stroke="#6341A9" stroke-width="6" stroke-miterlimit="10"/>
<path d="M-78.0884 381.637H148.855V353.068" stroke="#6341A9" stroke-width="6" stroke-miterlimit="10"/>
<path d="M-79.7246 473.19H495.105V566.663H556.556V468.391H611.184V425.581H438.527L436.847 294.202" stroke="#6341A9" stroke-width="6" stroke-miterlimit="10"/>
<path d="M276.596 335.101H345.37H414.144V253.373H345.37H276.596V335.101Z" stroke="#6341A9" stroke-width="6" stroke-miterlimit="10"/>
<path d="M644.657 689.996C685.882 689.996 719.301 656.664 719.301 615.546C719.301 574.429 685.882 541.096 644.657 541.096C603.432 541.096 570.012 574.429 570.012 615.546C570.012 656.664 603.432 689.996 644.657 689.996Z" stroke="#6341A9" stroke-width="6" stroke-miterlimit="10"/>
<path d="M861.023 689.996C902.248 689.996 935.667 656.664 935.667 615.546C935.667 574.429 902.248 541.096 861.023 541.096C819.797 541.096 786.378 574.429 786.378 615.546C786.378 656.664 819.797 689.996 861.023 689.996Z" stroke="#6341A9" stroke-width="6" stroke-miterlimit="10"/>
<path d="M-5.08006 689.996C36.145 689.996 69.5645 656.664 69.5645 615.546C69.5645 574.429 36.145 541.096 -5.08006 541.096C-46.3051 541.096 -79.7246 574.429 -79.7246 615.546C-79.7246 656.664 -46.3051 689.996 -5.08006 689.996Z" stroke="#6341A9" stroke-width="6" stroke-miterlimit="10"/>
<path d="M211.286 689.996C252.511 689.996 285.931 656.664 285.931 615.546C285.931 574.429 252.511 541.096 211.286 541.096C170.061 541.096 136.642 574.429 136.642 615.546C136.642 656.664 170.061 689.996 211.286 689.996Z" stroke="#6341A9" stroke-width="6" stroke-miterlimit="10"/>
<path d="M22.6797 546.445L42.6794 522.422H157.393L185.731 545.581" stroke="#6341A9" stroke-width="6" stroke-miterlimit="10"/>
<path d="M53.502 566.663H154.918" stroke="#6341A9" stroke-width="6" stroke-miterlimit="10"/>
<path d="M55.4702 659.08H148.347" stroke="#6341A9" stroke-width="6" stroke-miterlimit="10"/>
<path d="M32.6973 679.778H173.535" stroke="#6341A9" stroke-width="6" stroke-miterlimit="10"/>
<path d="M707.683 659.08H800.568" stroke="#6341A9" stroke-width="6" stroke-miterlimit="10"/>
<path d="M684.91 679.778H825.756" stroke="#6341A9" stroke-width="6" stroke-miterlimit="10"/>
<path d="M800.568 522.422L833.254 546.445" stroke="#6341A9" stroke-width="6" stroke-miterlimit="10"/>
<path d="M704.761 571.41H800.918" stroke="#6341A9" stroke-width="6" stroke-miterlimit="10"/>
<path d="M644.657 636.637C656.335 636.637 665.802 627.194 665.802 615.546C665.802 603.898 656.335 594.456 644.657 594.456C632.978 594.456 623.511 603.898 623.511 615.546C623.511 627.194 632.978 636.637 644.657 636.637Z" stroke="#6341A9" stroke-width="6" stroke-miterlimit="10"/>
<path d="M864.854 636.637C876.533 636.637 886 627.194 886 615.546C886 603.898 876.533 594.456 864.854 594.456C853.176 594.456 843.708 603.898 843.708 615.546C843.708 627.194 853.176 636.637 864.854 636.637Z" stroke="#6341A9" stroke-width="6" stroke-miterlimit="10"/>
<path d="M-5.89376 633.958C5.78473 633.958 15.252 624.515 15.252 612.867C15.252 601.219 5.78473 591.777 -5.89376 591.777C-17.5723 591.777 -27.0396 601.219 -27.0396 612.867C-27.0396 624.515 -17.5723 633.958 -5.89376 633.958Z" stroke="#6341A9" stroke-width="6" stroke-miterlimit="10"/>
<path d="M214.304 633.958C225.983 633.958 235.45 624.515 235.45 612.867C235.45 601.219 225.983 591.777 214.304 591.777C202.626 591.777 193.159 601.219 193.159 612.867C193.159 624.515 202.626 633.958 214.304 633.958Z" stroke="#6341A9" stroke-width="6" stroke-miterlimit="10"/>
<path d="M950.837 473.67H966.384V518.295H941.17" stroke="#6341A9" stroke-width="6" stroke-miterlimit="10"/>
<path d="M966.384 491.044L1152.15 636.646V652.344H945.623V518.295" stroke="#6341A9" stroke-width="6" stroke-miterlimit="10"/>
<path d="M957.592 518.295L959.823 648.531" stroke="#6341A9" stroke-width="6" stroke-miterlimit="10"/>
<path d="M966.384 510.66L1137.94 652.344" stroke="#6341A9" stroke-width="6" stroke-miterlimit="10"/>
<path d="M1104.61 652.344L966.384 518.295L1066.91 652.344" stroke="#6341A9" stroke-width="6" stroke-miterlimit="10"/>
<path d="M1031.4 652.344L966.384 518.295L994.249 652.344" stroke="#6341A9" stroke-width="6" stroke-miterlimit="10"/>
<path d="M959.822 393.949H973.672V438.059H959.822" stroke="#6341A9" stroke-width="6" stroke-miterlimit="10"/>
<path d="M574 196V2H971.5" stroke="#6341A9" stroke-width="4"/>
<path d="M777.5 727.5H363V621.5" stroke="#6341A9" stroke-width="4"/>
</svg>
